<?xml version="1.0" encoding="UTF-8"?>
<!--Generator: Apple Native CoreSVG 175-->
<!DOCTYPE svg
PUBLIC "-//W3C//DTD SVG 1.1//EN"
       "http://www.w3.org/Graphics/SVG/1.1/DTD/svg11.dtd">
<svg version="1.1" xmlns="http://www.w3.org/2000/svg" xmlns:xlink="http://www.w3.org/1999/xlink" width="3300" height="2200">
 <!--glyph: "uni100184.medium", point size: 100.0, font version: "17.1d1e1", template writer version: "65.1"-->
 <g id="Notes">
  <rect height="2200" id="artboard" style="fill:white;opacity:1" width="3300" x="0" y="0"/>
  <line style="fill:none;stroke:black;opacity:1;stroke-width:0.5;" x1="263" x2="3036" y1="292" y2="292"/>
  <text style="stroke:none;fill:black;font-family:sans-serif;font-size:13;font-weight:bold;" transform="matrix(1 0 0 1 263 322)">Weight/Scale Variations</text>
  <text style="stroke:none;fill:black;font-family:sans-serif;font-size:13;text-anchor:middle;" transform="matrix(1 0 0 1 559.711 322)">Ultralight</text>
  <text style="stroke:none;fill:black;font-family:sans-serif;font-size:13;text-anchor:middle;" transform="matrix(1 0 0 1 856.422 322)">Thin</text>
  <text style="stroke:none;fill:black;font-family:sans-serif;font-size:13;text-anchor:middle;" transform="matrix(1 0 0 1 1153.13 322)">Light</text>
  <text style="stroke:none;fill:black;font-family:sans-serif;font-size:13;text-anchor:middle;" transform="matrix(1 0 0 1 1449.84 322)">Regular</text>
  <text style="stroke:none;fill:black;font-family:sans-serif;font-size:13;text-anchor:middle;" transform="matrix(1 0 0 1 1746.56 322)">Medium</text>
  <text style="stroke:none;fill:black;font-family:sans-serif;font-size:13;text-anchor:middle;" transform="matrix(1 0 0 1 2043.27 322)">Semibold</text>
  <text style="stroke:none;fill:black;font-family:sans-serif;font-size:13;text-anchor:middle;" transform="matrix(1 0 0 1 2339.98 322)">Bold</text>
  <text style="stroke:none;fill:black;font-family:sans-serif;font-size:13;text-anchor:middle;" transform="matrix(1 0 0 1 2636.69 322)">Heavy</text>
  <text style="stroke:none;fill:black;font-family:sans-serif;font-size:13;text-anchor:middle;" transform="matrix(1 0 0 1 2933.4 322)">Black</text>
  <line style="fill:none;stroke:black;opacity:1;stroke-width:0.5;" x1="263" x2="3036" y1="1903" y2="1903"/>
  <g transform="matrix(1 0 0 1 263 1933)">
   <path d="M9.24805 0.830078Q10.8691 0.830078 12.2949 0.214844Q13.7207-0.400391 14.8096-1.49414Q15.8984-2.58789 16.5186-4.01367Q17.1387-5.43945 17.1387-7.05078Q17.1387-8.66211 16.5186-10.0879Q15.8984-11.5137 14.8047-12.6074Q13.7109-13.7012 12.2852-14.3164Q10.8594-14.9316 9.23828-14.9316Q7.62695-14.9316 6.20117-14.3164Q4.77539-13.7012 3.69141-12.6074Q2.60742-11.5137 1.9873-10.0879Q1.36719-8.66211 1.36719-7.05078Q1.36719-5.43945 1.9873-4.01367Q2.60742-2.58789 3.69629-1.49414Q4.78516-0.400391 6.21094 0.214844Q7.63672 0.830078 9.24805 0.830078ZM9.24805-0.654297Q7.91992-0.654297 6.7627-1.14746Q5.60547-1.64062 4.73145-2.51953Q3.85742-3.39844 3.36426-4.56055Q2.87109-5.72266 2.87109-7.05078Q2.87109-8.37891 3.35938-9.54102Q3.84766-10.7031 4.72168-11.582Q5.5957-12.4609 6.75293-12.9541Q7.91016-13.4473 9.23828-13.4473Q10.5762-13.4473 11.7334-12.9541Q12.8906-12.4609 13.7695-11.582Q14.6484-10.7031 15.1465-9.54102Q15.6445-8.37891 15.6445-7.05078Q15.6445-5.72266 15.1514-4.56055Q14.6582-3.39844 13.7842-2.51953Q12.9102-1.64062 11.748-1.14746Q10.5859-0.654297 9.24805-0.654297ZM5.6543-7.05078Q5.6543-6.72852 5.85938-6.52832Q6.06445-6.32812 6.40625-6.32812L8.51562-6.32812L8.51562-4.20898Q8.51562-3.88672 8.71094-3.67676Q8.90625-3.4668 9.23828-3.4668Q9.56055-3.4668 9.77051-3.67676Q9.98047-3.88672 9.98047-4.20898L9.98047-6.32812L12.0898-6.32812Q12.4219-6.32812 12.627-6.52832Q12.832-6.72852 12.832-7.05078Q12.832-7.38281 12.627-7.58789Q12.4219-7.79297 12.0898-7.79297L9.98047-7.79297L9.98047-9.90234Q9.98047-10.2344 9.77051-10.4443Q9.56055-10.6543 9.23828-10.6543Q8.90625-10.6543 8.71094-10.4443Q8.51562-10.2344 8.51562-9.90234L8.51562-7.79297L6.40625-7.79297Q6.06445-7.79297 5.85938-7.58789Q5.6543-7.38281 5.6543-7.05078Z"/>
  </g>
  <g transform="matrix(1 0 0 1 281.867 1933)">
   <path d="M11.709 2.91016Q13.75 2.91016 15.5518 2.12891Q17.3535 1.34766 18.7305-0.0292969Q20.1074-1.40625 20.8887-3.20801Q21.6699-5.00977 21.6699-7.05078Q21.6699-9.0918 20.8887-10.8936Q20.1074-12.6953 18.7305-14.0723Q17.3535-15.4492 15.5469-16.2305Q13.7402-17.0117 11.6992-17.0117Q9.6582-17.0117 7.85645-16.2305Q6.05469-15.4492 4.68262-14.0723Q3.31055-12.6953 2.5293-10.8936Q1.74805-9.0918 1.74805-7.05078Q1.74805-5.00977 2.5293-3.20801Q3.31055-1.40625 4.6875-0.0292969Q6.06445 1.34766 7.86621 2.12891Q9.66797 2.91016 11.709 2.91016ZM11.709 1.25Q9.98047 1.25 8.47656 0.605469Q6.97266-0.0390625 5.83496-1.17676Q4.69727-2.31445 4.05762-3.81836Q3.41797-5.32227 3.41797-7.05078Q3.41797-8.7793 4.05762-10.2832Q4.69727-11.7871 5.83008-12.9297Q6.96289-14.0723 8.4668-14.7119Q9.9707-15.3516 11.6992-15.3516Q13.4277-15.3516 14.9316-14.7119Q16.4355-14.0723 17.5781-12.9297Q18.7207-11.7871 19.3652-10.2832Q20.0098-8.7793 20.0098-7.05078Q20.0098-5.32227 19.3701-3.81836Q18.7305-2.31445 17.5928-1.17676Q16.4551-0.0390625 14.9463 0.605469Q13.4375 1.25 11.709 1.25ZM7.17773-7.05078Q7.17773-6.69922 7.41211-6.47461Q7.64648-6.25 8.01758-6.25L10.8887-6.25L10.8887-3.36914Q10.8887-2.99805 11.1133-2.76855Q11.3379-2.53906 11.6895-2.53906Q12.0605-2.53906 12.29-2.76855Q12.5195-2.99805 12.5195-3.36914L12.5195-6.25L15.4004-6.25Q15.7715-6.25 16.001-6.47461Q16.2305-6.69922 16.2305-7.05078Q16.2305-7.42188 16.001-7.65137Q15.7715-7.88086 15.4004-7.88086L12.5195-7.88086L12.5195-10.752Q12.5195-11.1328 12.29-11.3623Q12.0605-11.5918 11.6895-11.5918Q11.3379-11.5918 11.1133-11.3574Q10.8887-11.123 10.8887-10.752L10.8887-7.88086L8.01758-7.88086Q7.63672-7.88086 7.40723-7.65137Q7.17773-7.42188 7.17773-7.05078Z"/>
  </g>
  <g transform="matrix(1 0 0 1 305.646 1933)">
   <path d="M14.9707 5.66406Q17.0605 5.66406 18.96 5.01465Q20.8594 4.36523 22.4512 3.19336Q24.043 2.02148 25.2197 0.429688Q26.3965-1.16211 27.0459-3.06641Q27.6953-4.9707 27.6953-7.05078Q27.6953-9.14062 27.0459-11.04Q26.3965-12.9395 25.2197-14.5312Q24.043-16.123 22.4512-17.2998Q20.8594-18.4766 18.9551-19.126Q17.0508-19.7754 14.9609-19.7754Q12.8711-19.7754 10.9717-19.126Q9.07227-18.4766 7.48535-17.2998Q5.89844-16.123 4.72168-14.5312Q3.54492-12.9395 2.90039-11.04Q2.25586-9.14062 2.25586-7.05078Q2.25586-4.9707 2.90527-3.06641Q3.55469-1.16211 4.72656 0.429688Q5.89844 2.02148 7.49023 3.19336Q9.08203 4.36523 10.9814 5.01465Q12.8809 5.66406 14.9707 5.66406ZM14.9707 3.84766Q13.1641 3.84766 11.5283 3.2959Q9.89258 2.74414 8.53516 1.74805Q7.17773 0.751953 6.17676-0.610352Q5.17578-1.97266 4.62891-3.6084Q4.08203-5.24414 4.08203-7.05078Q4.08203-8.86719 4.62891-10.5029Q5.17578-12.1387 6.17188-13.501Q7.16797-14.8633 8.52539-15.8594Q9.88281-16.8555 11.5186-17.4023Q13.1543-17.9492 14.9609-17.9492Q16.7773-17.9492 18.4131-17.4023Q20.0488-16.8555 21.4111-15.8594Q22.7734-14.8633 23.7695-13.501Q24.7656-12.1387 25.3174-10.5029Q25.8691-8.86719 25.8691-7.05078Q25.8789-5.24414 25.332-3.6084Q24.7852-1.97266 23.7842-0.610352Q22.7832 0.751953 21.4209 1.74805Q20.0586 2.74414 18.4229 3.2959Q16.7871 3.84766 14.9707 3.84766ZM9.19922-7.05078Q9.19922-6.66992 9.45801-6.4209Q9.7168-6.17188 10.1172-6.17188L14.0625-6.17188L14.0625-2.2168Q14.0625-1.81641 14.3115-1.55762Q14.5605-1.29883 14.9512-1.29883Q15.3516-1.29883 15.6104-1.55273Q15.8691-1.80664 15.8691-2.2168L15.8691-6.17188L19.8242-6.17188Q20.2246-6.17188 20.4785-6.4209Q20.7324-6.66992 20.7324-7.05078Q20.7324-7.46094 20.4785-7.71484Q20.2246-7.96875 19.8242-7.96875L15.8691-7.96875L15.8691-11.9141Q15.8691-12.3242 15.6104-12.583Q15.3516-12.8418 14.9512-12.8418Q14.5605-12.8418 14.3115-12.583Q14.0625-12.3242 14.0625-11.9141L14.0625-7.96875L10.1172-7.96875Q9.70703-7.96875 9.45312-7.71484Q9.19922-7.46094 9.19922-7.05078Z"/>
  </g>
  <text style="stroke:none;fill:black;font-family:sans-serif;font-size:13;font-weight:bold;" transform="matrix(1 0 0 1 263 1953)">Design Variations</text>
  <text style="stroke:none;fill:black;font-family:sans-serif;font-size:13;" transform="matrix(1 0 0 1 263 1971)">Symbols are supported in up to nine weights and three scales.</text>
  <text style="stroke:none;fill:black;font-family:sans-serif;font-size:13;" transform="matrix(1 0 0 1 263 1989)">For optimal layout with text and other symbols, vertically align</text>
  <text style="stroke:none;fill:black;font-family:sans-serif;font-size:13;" transform="matrix(1 0 0 1 263 2007)">symbols with the adjacent text.</text>
  <line style="fill:none;stroke:#00AEEF;stroke-width:0.5;opacity:1.0;" x1="776" x2="776" y1="1919" y2="1933"/>
  <g transform="matrix(1 0 0 1 776 1933)">
   <path d="M3.31055 0.15625Q3.70117 0.15625 3.91602-0.00976562Q4.13086-0.175781 4.26758-0.585938L5.52734-4.0332L11.2891-4.0332L12.5488-0.585938Q12.6855-0.175781 12.9004-0.00976562Q13.1152 0.15625 13.4961 0.15625Q13.8867 0.15625 14.1162-0.0585938Q14.3457-0.273438 14.3457-0.644531Q14.3457-0.869141 14.2383-1.17188L9.6582-13.3691Q9.48242-13.8184 9.17969-14.043Q8.87695-14.2676 8.4082-14.2676Q7.5-14.2676 7.17773-13.3789L2.59766-1.16211Q2.49023-0.859375 2.49023-0.634766Q2.49023-0.263672 2.70996-0.0537109Q2.92969 0.15625 3.31055 0.15625ZM6.00586-5.51758L8.37891-12.0898L8.42773-12.0898L10.8008-5.51758Z"/>
  </g>
  <line style="fill:none;stroke:#00AEEF;stroke-width:0.5;opacity:1.0;" x1="793.197" x2="793.197" y1="1919" y2="1933"/>
  <text style="stroke:none;fill:black;font-family:sans-serif;font-size:13;font-weight:bold;" transform="matrix(1 0 0 1 776 1953)">Margins</text>
  <text style="stroke:none;fill:black;font-family:sans-serif;font-size:13;" transform="matrix(1 0 0 1 776 1971)">Leading and trailing margins on the left and right side of each symbol</text>
  <text style="stroke:none;fill:black;font-family:sans-serif;font-size:13;" transform="matrix(1 0 0 1 776 1989)">can be adjusted by modifying the x-location of the margin guidelines.</text>
  <text style="stroke:none;fill:black;font-family:sans-serif;font-size:13;" transform="matrix(1 0 0 1 776 2007)">Modifications are automatically applied proportionally to all</text>
  <text style="stroke:none;fill:black;font-family:sans-serif;font-size:13;" transform="matrix(1 0 0 1 776 2025)">scales and weights.</text>
  <g transform="matrix(1 0 0 1 1289 1933)">
   <path d="M2.8418 1.86523L4.54102 3.57422Q5.18555 4.22852 5.90332 4.17969Q6.62109 4.13086 7.31445 3.35938L18.0078-8.42773L17.041-9.4043L6.42578 2.27539Q6.16211 2.57812 5.89355 2.61719Q5.625 2.65625 5.27344 2.30469L4.10156 1.14258Q3.75 0.791016 3.79395 0.522461Q3.83789 0.253906 4.14062-0.0195312L15.6152-10.8203L14.6387-11.7871L3.04688-0.898438Q2.30469-0.214844 2.25098 0.498047Q2.19727 1.21094 2.8418 1.86523ZM9.25781-16.3281Q8.94531-16.0254 8.90625-15.6348Q8.86719-15.2441 9.04297-14.9512Q9.21875-14.6777 9.55566-14.541Q9.89258-14.4043 10.3809-14.5215Q11.4746-14.7754 12.5977-14.7314Q13.7207-14.6875 14.7949-13.9844L14.209-12.5293Q13.9551-11.9043 14.0674-11.4404Q14.1797-10.9766 14.5801-10.5664L16.875-8.25195Q17.2363-7.88086 17.5781-7.82227Q17.9199-7.76367 18.3398-7.8418L19.4043-8.03711L20.0684-7.36328L20.0293-6.80664Q20-6.43555 20.1221-6.12305Q20.2441-5.81055 20.6055-5.44922L21.3672-4.70703Q21.7285-4.3457 22.1533-4.33105Q22.5781-4.31641 22.9297-4.66797L25.8398-7.58789Q26.1914-7.93945 26.1816-8.35449Q26.1719-8.76953 25.8105-9.13086L25.0391-9.89258Q24.6875-10.2539 24.3799-10.3857Q24.0723-10.5176 23.7109-10.4883L23.1348-10.4395L22.4902-11.0742L22.7344-12.1973Q22.832-12.6172 22.6953-12.9834Q22.5586-13.3496 22.1191-13.7891L19.9219-15.9766Q18.6719-17.2168 17.2607-17.8369Q15.8496-18.457 14.4189-18.4814Q12.9883-18.5059 11.665-17.959Q10.3418-17.4121 9.25781-16.3281ZM10.752-15.957Q11.6602-16.6211 12.7002-16.9043Q13.7402-17.1875 14.8047-17.085Q15.8691-16.9824 16.8701-16.5137Q17.8711-16.0449 18.7012-15.2051L21.1328-12.793Q21.3086-12.6172 21.3525-12.4512Q21.3965-12.2852 21.3379-12.0312L21.0156-10.5469L22.5195-9.0625L23.5059-9.12109Q23.6914-9.13086 23.7891-9.09668Q23.8867-9.0625 24.0332-8.91602L24.6094-8.33984L22.168-5.89844L21.5918-6.47461Q21.4453-6.62109 21.4062-6.71875Q21.3672-6.81641 21.377-7.01172L21.4453-7.98828L19.9512-9.47266L18.4277-9.21875Q18.1836-9.16992 18.042-9.2041Q17.9004-9.23828 17.7148-9.41406L15.7129-11.416Q15.5176-11.5918 15.4932-11.7529Q15.4688-11.9141 15.5859-12.1875L16.4648-14.2773Q15.293-15.3711 13.8281-15.791Q12.3633-16.2109 10.8398-15.7617Q10.7227-15.7324 10.6885-15.8057Q10.6543-15.8789 10.752-15.957Z"/>
  </g>
  <text style="stroke:none;fill:black;font-family:sans-serif;font-size:13;font-weight:bold;" transform="matrix(1 0 0 1 1289 1953)">Exporting</text>
  <text style="stroke:none;fill:black;font-family:sans-serif;font-size:13;" transform="matrix(1 0 0 1 1289 1971)">Symbols should be outlined when exporting to ensure the</text>
  <text style="stroke:none;fill:black;font-family:sans-serif;font-size:13;" transform="matrix(1 0 0 1 1289 1989)">design is preserved when submitting to Xcode.</text>
  <text id="template-version" style="stroke:none;fill:black;font-family:sans-serif;font-size:13;text-anchor:end;" transform="matrix(1 0 0 1 3036 1933)">Template v.3.0</text>
  <text style="stroke:none;fill:black;font-family:sans-serif;font-size:13;text-anchor:end;" transform="matrix(1 0 0 1 3036 1951)">Requires Xcode 13 or greater</text>
  <text id="descriptive-name" style="stroke:none;fill:black;font-family:sans-serif;font-size:13;text-anchor:end;" transform="matrix(1 0 0 1 3036 1969)">Generated from xmark</text>
  <text style="stroke:none;fill:black;font-family:sans-serif;font-size:13;text-anchor:end;" transform="matrix(1 0 0 1 3036 1987)">Typeset at 100 points</text>
  <text style="stroke:none;fill:black;font-family:sans-serif;font-size:13;" transform="matrix(1 0 0 1 263 726)">Small</text>
  <text style="stroke:none;fill:black;font-family:sans-serif;font-size:13;" transform="matrix(1 0 0 1 263 1156)">Medium</text>
  <text style="stroke:none;fill:black;font-family:sans-serif;font-size:13;" transform="matrix(1 0 0 1 263 1586)">Large</text>
 </g>
 <g id="Guides">
  <g id="H-reference" style="fill:#27AAE1;stroke:none;" transform="matrix(1 0 0 1 339 696)">
   <path d="M0.976562 0L3.66211 0L29.3457-67.1387L30.0293-67.1387L30.0293-70.459L28.125-70.459ZM11.6699-24.4629L46.9727-24.4629L46.2402-26.709L12.4512-26.709ZM55.127 0L57.7637 0L30.6152-70.459L29.4434-70.459L29.4434-67.1387Z"/>
  </g>
  <line id="Baseline-S" style="fill:none;stroke:#27AAE1;opacity:1;stroke-width:0.5;" x1="263" x2="3036" y1="696" y2="696"/>
  <line id="Capline-S" style="fill:none;stroke:#27AAE1;opacity:1;stroke-width:0.5;" x1="263" x2="3036" y1="625.541" y2="625.541"/>
  <g id="H-reference" style="fill:#27AAE1;stroke:none;" transform="matrix(1 0 0 1 339 1126)">
   <path d="M0.976562 0L3.66211 0L29.3457-67.1387L30.0293-67.1387L30.0293-70.459L28.125-70.459ZM11.6699-24.4629L46.9727-24.4629L46.2402-26.709L12.4512-26.709ZM55.127 0L57.7637 0L30.6152-70.459L29.4434-70.459L29.4434-67.1387Z"/>
  </g>
  <line id="Baseline-M" style="fill:none;stroke:#27AAE1;opacity:1;stroke-width:0.5;" x1="263" x2="3036" y1="1126" y2="1126"/>
  <line id="Capline-M" style="fill:none;stroke:#27AAE1;opacity:1;stroke-width:0.5;" x1="263" x2="3036" y1="1055.54" y2="1055.54"/>
  <g id="H-reference" style="fill:#27AAE1;stroke:none;" transform="matrix(1 0 0 1 339 1556)">
   <path d="M0.976562 0L3.66211 0L29.3457-67.1387L30.0293-67.1387L30.0293-70.459L28.125-70.459ZM11.6699-24.4629L46.9727-24.4629L46.2402-26.709L12.4512-26.709ZM55.127 0L57.7637 0L30.6152-70.459L29.4434-70.459L29.4434-67.1387Z"/>
  </g>
  <line id="Baseline-L" style="fill:none;stroke:#27AAE1;opacity:1;stroke-width:0.5;" x1="263" x2="3036" y1="1556" y2="1556"/>
  <line id="Capline-L" style="fill:none;stroke:#27AAE1;opacity:1;stroke-width:0.5;" x1="263" x2="3036" y1="1485.54" y2="1485.54"/>
  <line id="left-margin-Regular-M" style="fill:none;stroke:#00AEEF;stroke-width:0.5;opacity:1.0;" x1="1398.69" x2="1398.69" y1="1030.79" y2="1150.12"/>
  <line id="right-margin-Regular-M" style="fill:none;stroke:#00AEEF;stroke-width:0.5;opacity:1.0;" x1="1501" x2="1501" y1="1030.79" y2="1150.12"/>
 </g>
 <g id="Symbols">
  <g id="Black-L" transform="matrix(1 0 0 1 2863.85 1556)">
   <path d="M19.49 14.8992Q22.9168 18.304 27.9844 18.2748Q33.052 18.2456 36.2244 15.0744L69.576-18.2991L102.831 15.016Q106.121 18.3624 111.101 18.3143Q116.081 18.2663 119.545 14.8408Q122.951 11.4127 122.98 6.44312Q123.01 1.47351 119.72-1.87542L86.4648-35.188L119.72-68.4227Q123.01-71.7911 122.991-76.7711Q122.972-81.751 119.545-85.1571Q116.06-88.5632 111.09-88.6216Q106.121-88.68 102.831-85.3323L69.576-52.0769L36.2244-85.3907Q33.052-88.5632 27.9734-88.5924Q22.8948-88.6216 19.49-85.2155Q16.0256-81.7887 16.084-76.7315Q16.1424-71.6743 19.3148-68.4811L52.6871-35.188L19.3148-1.81701Q16.1424 1.3567 16.084 6.42428Q16.0256 11.4919 19.49 14.8992Z"/>
  </g>
  <g id="Heavy-L" transform="matrix(1 0 0 1 2568.03 1556)">
   <path d="M19.0419 14.4596Q22.0295 17.4115 26.4202 17.3892Q30.8108 17.3669 33.5902 14.5935L68.6787-20.5309L103.708 14.5489Q106.576 17.4561 110.9 17.4264Q115.224 17.3966 118.226 14.415Q121.184 11.4213 121.207 7.11251Q121.229 2.80372 118.36-0.115593L83.3311-35.1832L118.36-70.1826Q121.229-73.1256 121.221-77.4493Q121.214-81.7729 118.226-84.7308Q115.194-87.6887 110.885-87.7334Q106.576-87.778 103.708-84.8647L68.6787-49.8356L33.5902-84.9093Q30.8108-87.6887 26.4023-87.7111Q21.9938-87.7334 19.0419-84.7755Q16.0394-81.7878 16.084-77.4121Q16.1286-73.0363 18.908-70.2272L54.0263-35.1832L18.908-0.0709701Q16.1286 2.71448 16.084 7.10508Q16.0394 11.4957 19.0419 14.4596Z"/>
  </g>
  <g id="Bold-L" transform="matrix(1 0 0 1 2272.43 1556)">
   <path d="M18.4945 13.9103Q20.942 16.3066 24.5034 16.292Q28.0648 16.2774 30.3585 13.9979L67.5657-23.2605L104.751 13.9687Q107.104 16.3358 110.621 16.3251Q114.139 16.3144 116.578 13.8811Q118.989 11.4194 119.004 7.92032Q119.018 4.42126 116.666 2.02571L79.4802-35.1751L116.666-72.3239Q119.018-74.7422 119.022-78.2597Q119.026-81.7773 116.578-84.1878Q114.102-86.5983 110.603-86.6275Q107.104-86.6567 104.751-84.2754L67.5657-47.0896L30.3585-84.3046Q28.0648-86.5983 24.4778-86.6129Q20.8908-86.6275 18.4945-84.217Q16.0548-81.7695 16.084-78.2266Q16.1132-74.6838 18.4069-72.3531L55.6511-35.1751L18.4069 2.05492Q16.1132 4.36286 16.084 7.92422Q16.0548 11.4856 18.4945 13.9103Z"/>
  </g>
  <g id="Semibold-L" transform="matrix(1 0 0 1 1976.48 1556)">
   <path d="M18.1172 13.5317Q20.1923 15.545 23.182 15.5357Q26.1717 15.5264 28.1305 13.5874L66.7983-25.1423L105.471 13.5688Q107.467 15.5635 110.429 15.5659Q113.391 15.5684 115.442 13.5131Q117.476 11.4181 117.485 8.47722Q117.494 5.53639 115.498 3.50192L76.8255-35.1694L115.498-73.8001Q117.494-75.8566 117.506-78.8185Q117.518-81.7803 115.442-83.8135Q113.349-85.8466 110.408-85.8652Q107.467-85.8838 105.471-83.8692L66.7983-45.1965L28.1305-83.8877Q26.1717-85.8466 23.1511-85.8559Q20.1305-85.8652 18.1172-83.832Q16.0654-81.7569 16.084-78.7882Q16.1026-75.8195 18.0614-73.8186L56.7712-35.1694L18.0614 3.52049Q16.1026 5.49924 16.084 8.48892Q16.0654 11.4786 18.1172 13.5317Z"/>
  </g>
  <g id="Medium-L" transform="matrix(1 0 0 1 1680.34 1556)">
   <path d="M17.831 13.2445Q19.6238 14.9674 22.18 14.9622Q24.7363 14.9569 26.4412 13.2761L66.2165-26.5691L106.017 13.2655Q107.743 14.9779 110.283 14.9903Q112.823 15.0027 114.581 13.234Q116.328 11.417 116.333 8.89949Q116.339 6.38192 114.613 4.62123L74.8125-35.1651L114.613-74.9194Q116.339-76.7017 116.356-79.2421Q116.374-81.7825 114.581-83.5296Q112.778-85.2766 110.26-85.2872Q107.743-85.2977 106.017-83.5611L66.2165-43.7611L26.4412-83.5716Q24.7363-85.2766 22.1451-85.2819Q19.5539-85.2872 17.831-83.5401Q16.0735-81.7473 16.084-79.214Q16.0945-76.6806 17.7995-74.9299L57.6205-35.1651L17.7995 4.63175Q16.0945 6.3609 16.084 8.91711Q16.0735 11.4733 17.831 13.2445Z"/>
  </g>
  <g id="Regular-L" transform="matrix(1 0 0 1 1384.39 1556)">
   <path d="M17.4578 12.87Q18.8823 14.2141 20.8732 14.2141Q22.864 14.2141 24.2378 12.87L65.4576-28.4302L106.728 12.87Q108.102 14.2141 110.093 14.2394Q112.084 14.2648 113.457 12.87Q114.831 11.4157 114.831 9.45027Q114.831 7.48479 113.457 6.08121L72.1869-35.1595L113.457-76.3794Q114.831-77.8039 114.857-79.7947Q114.882-81.7855 113.457-83.1593Q112.033-84.5332 110.067-84.5332Q108.102-84.5332 106.728-83.1593L65.4576-41.8889L24.2378-83.1593Q22.864-84.5332 20.8329-84.5332Q18.8019-84.5332 17.4578-83.1593Q16.084-81.7348 16.084-79.7694Q16.084-77.8039 17.4578-76.3794L58.7283-35.1595L17.4578 6.08121Q16.084 7.48479 16.084 9.47561Q16.084 11.4664 17.4578 12.87Z"/>
  </g>
  <g id="Light-L" transform="matrix(1 0 0 1 1088.46 1556)">
   <path d="M17.1295 12.4596Q18.2051 13.4548 19.6829 13.4548Q21.1606 13.4548 22.2061 12.4596L64.6778-30.0925L107.18 12.4596Q108.225 13.4548 109.703 13.4699Q111.181 13.4849 112.226 12.4596Q113.272 11.3337 113.272 9.87097Q113.272 8.40828 112.226 7.31253L69.7243-35.139L112.226-77.6107Q113.272-78.6863 113.287-80.1641Q113.302-81.6419 112.226-82.6873Q111.15-83.7328 109.688-83.7328Q108.225-83.7328 107.18-82.6873L64.6778-40.1855L22.2061-82.6873Q21.1606-83.7328 19.6427-83.7328Q18.1247-83.7328 17.1295-82.6873Q16.084-81.6117 16.084-80.149Q16.084-78.6863 17.1295-77.6107L59.6313-35.139L17.1295 7.31253Q16.084 8.40828 16.084 9.88605Q16.084 11.3638 17.1295 12.4596Z"/>
  </g>
  <g id="Thin-L" transform="matrix(1 0 0 1 792.776 1556)">
   <path d="M16.6952 11.9167Q17.3094 12.4505 18.1087 12.4505Q18.9079 12.4505 19.5191 11.9167L63.6464-32.291L107.777 11.9167Q108.388 12.4505 109.187 12.452Q109.986 12.4536 110.598 11.9167Q111.209 11.2251 111.209 10.4274Q111.209 9.62967 110.598 8.94105L66.4673-35.1119L110.598-79.2392Q111.209-79.8534 111.21-80.6526Q111.212-81.4519 110.598-82.0631Q109.983-82.6743 109.186-82.6743Q108.388-82.6743 107.777-82.0631L63.6464-37.9327L19.5191-82.0631Q18.9079-82.6743 18.0684-82.6743Q17.229-82.6743 16.6952-82.0631Q16.084-81.4488 16.084-80.6511Q16.084-79.8534 16.6952-79.2392L60.8255-35.1119L16.6952 8.94105Q16.084 9.62967 16.084 10.4289Q16.084 11.2281 16.6952 11.9167Z"/>
  </g>
  <g id="Ultralight-L" transform="matrix(1 0 0 1 496.593 1556)">
   <path d="M16.4728 11.6387Q16.8507 11.9362 17.3023 11.9362Q17.754 11.9362 18.1428 11.6387L63.1181-33.4171L108.083 11.6387Q108.471 11.9362 108.923 11.9307Q109.375 11.9253 109.763 11.6387Q110.152 11.1695 110.152 10.7124Q110.152 10.2553 109.763 9.77517L64.799-35.098L109.763-80.0733Q110.152-80.4512 110.147-80.9029Q110.141-81.3545 109.763-81.7433Q109.386-82.1321 108.928-82.1321Q108.471-82.1321 108.083-81.7433L63.1181-36.7789L18.1428-81.7433Q17.754-82.1321 17.2621-82.1321Q16.7703-82.1321 16.4728-81.7433Q16.084-81.3654 16.084-80.9083Q16.084-80.4512 16.4728-80.0733L61.4372-35.098L16.4728 9.77517Q16.084 10.2553 16.084 10.7069Q16.084 11.1586 16.4728 11.6387Z"/>
  </g>
  <g id="Black-M" transform="matrix(1 0 0 1 2878.86 1126)">
   <path d="M15.4404 3.92949Q18.4254 6.90928 22.8638 6.88073Q27.3022 6.85218 30.0532 4.10078L54.5689-20.42L78.9758 4.04369Q81.8411 6.96637 86.1938 6.91203Q90.5465 6.85769 93.5831 3.8724Q96.5626 0.887708 96.5911-3.46226Q96.6197-7.81223 93.7544-10.7343L69.3475-35.1986L93.7544-59.6001Q96.6197-62.528 96.5939-66.8807Q96.5681-71.2334 93.5831-74.2129Q90.541-77.1924 86.191-77.2495Q81.8411-77.3066 78.9758-74.3842L54.5689-49.9772L30.0532-74.4413Q27.3022-77.1924 22.8612-77.2209Q18.4202-77.2495 15.4404-74.27Q12.4038-71.285 12.4609-66.8494Q12.518-62.4138 15.2691-59.6572L39.7903-35.1986L15.2691-10.6772Q12.518-7.92642 12.4609-3.48805Q12.4038 0.950317 15.4404 3.92949Z"/>
  </g>
  <g id="Heavy-M" transform="matrix(1 0 0 1 2582.95 1126)">
   <path d="M15.0326 3.53764Q17.6205 6.10686 21.4444 6.08505Q25.2683 6.06324 27.6655 3.6685L53.7637-22.4484L79.7909 3.62488Q82.2753 6.15049 86.0338 6.11498Q89.7922 6.07948 92.4075 3.49402Q94.9792 0.903661 95.001-2.8467Q95.0228-6.59706 92.5384-9.12755L66.5112-35.1959L92.5384-61.2068Q95.0228-63.7511 95.0091-67.5096Q94.9955-71.2681 92.4075-73.8397Q89.776-76.4114 86.0256-76.455Q82.2753-76.4987 79.7909-73.9706L53.7637-47.9434L27.6655-74.0142Q25.2683-76.4114 21.4351-76.4332Q17.6018-76.455 15.0326-73.8834Q12.4173-71.2955 12.4609-67.4797Q12.5046-63.6639 14.9017-61.2504L41.0162-35.1959L14.9017-9.08393Q12.5046-6.6843 12.4609-2.86039Q12.4173 0.96352 15.0326 3.53764Z"/>
  </g>
  <g id="Bold-M" transform="matrix(1 0 0 1 2287.13 1126)">
   <path d="M14.5764 3.09929Q16.7201 5.20925 19.8567 5.19498Q22.9932 5.1807 24.9945 3.18494L52.863-24.7173L80.7026 3.15639Q82.761 5.2378 85.8547 5.22337Q88.9485 5.20894 91.0925 3.07074Q93.208 0.921505 93.2223-2.1581Q93.2365-5.23771 91.1781-7.33017L63.3385-35.1928L91.1781-63.0042Q93.2365-65.1194 93.2364-68.2131Q93.2362-71.3068 91.0925-73.4223Q88.9202-75.5378 85.8406-75.5663Q82.761-75.5949 80.7026-73.508L52.863-45.6683L24.9945-73.5365Q22.9932-75.5378 19.8398-75.5521Q16.6864-75.5663 14.5764-73.4509Q12.4324-71.3071 12.4609-68.1847Q12.4895-65.0623 14.4908-63.0328L42.3875-35.1928L14.4908-7.30162Q12.4895-5.29481 12.4609-2.15826Q12.4324 0.97829 14.5764 3.09929Z"/>
  </g>
  <g id="Semibold-M" transform="matrix(1 0 0 1 1991.03 1126)">
   <path d="M14.2619 2.7971Q16.0994 4.59044 18.7621 4.58137Q21.4248 4.57229 23.1531 2.85157L52.2421-26.2815L81.3312 2.83341Q83.0959 4.6086 85.7313 4.6087Q88.3668 4.60879 90.1859 2.77894Q91.9869 0.933808 91.996-1.68339Q92.0051-4.30059 90.2404-6.09106L61.1513-35.1907L90.2404-64.2433Q92.0051-66.0627 92.0142-68.6981Q92.0234-71.3336 90.1859-73.1345Q88.3303-74.9355 85.7131-74.9537Q83.0959-74.9718 81.3312-73.189L52.2421-44.0999L23.1531-73.2072Q21.4248-74.9355 18.74-74.9446Q16.0553-74.9537 14.2619-73.1527Q12.4428-71.3152 12.4609-68.6708Q12.4791-66.0263 14.2075-64.2615L43.3329-35.1907L14.2075-6.0729Q12.4791-4.3369 12.4609-1.67421Q12.4428 0.988472 14.2619 2.7971Z"/>
  </g>
  <g id="Medium-M" transform="matrix(1 0 0 1 1694.79 1126)">
   <path d="M14.0235 2.56796Q15.6288 4.12124 17.9321 4.1161Q20.2355 4.11096 21.7569 2.59879L51.7713-27.4676L81.8078 2.58852Q83.3498 4.13151 85.6378 4.14263Q87.9257 4.15374 89.4985 2.55769Q91.061 0.943135 91.0662-1.32344Q91.0713-3.59002 89.5293-5.15151L59.4928-35.1891L89.5293-65.1829Q91.0713-66.7779 91.0876-69.0659Q91.1038-71.3538 89.4985-72.9163Q87.8829-74.4789 85.6164-74.4891Q83.3498-74.4994 81.8078-72.9472L51.7713-42.9106L21.7569-72.9575Q20.2355-74.4789 17.9061-74.484Q15.5767-74.4891 14.0235-72.9266Q12.4507-71.3213 12.4609-69.0393Q12.4712-66.7573 13.9926-65.1931L44.0497-35.1891L13.9926-5.14124Q12.4712-3.61057 12.4609-1.30719Q12.4507 0.996192 14.0235 2.56796Z"/>
  </g>
  <g id="Regular-M" transform="matrix(1 0 0 1 1398.69 1126)">
   <path d="M13.7124 2.26909Q15.0149 3.50923 16.8496 3.50923Q18.6843 3.50923 19.9358 2.26909L51.1572-29.0146L82.4295 2.26909Q83.681 3.50923 85.5157 3.53471Q87.3504 3.56019 88.6019 2.26909Q89.8534 0.955302 89.8534-0.853945Q89.8534-2.66319 88.6019-3.92602L57.3296-35.187L88.6019-66.4084Q89.8534-67.7108 89.8789-69.5455Q89.9043-71.3803 88.6019-72.6317Q87.2995-73.8832 85.4902-73.8832Q83.681-73.8832 82.4295-72.6317L51.1572-41.3594L19.9358-72.6317Q18.6843-73.8832 16.8184-73.8832Q14.9526-73.8832 13.7124-72.6317Q12.4609-71.3293 12.4609-69.52Q12.4609-67.7108 13.7124-66.4084L44.9847-35.187L13.7124-3.92602Q12.4609-2.66319 12.4609-0.828465Q12.4609 1.00626 13.7124 2.26909Z"/>
  </g>
  <g id="Light-M" transform="matrix(1 0 0 1 1102.68 1126)">
   <path d="M13.418 1.90111Q14.4077 2.82847 15.7824 2.82847Q17.1572 2.82847 18.1143 1.90111L50.458-30.5049L82.8343 1.90111Q83.7914 2.82847 85.1661 2.84475Q86.5409 2.86103 87.498 1.90111Q88.4551 0.881706 88.4551-0.476765Q88.4551-1.83524 87.498-2.82208L55.1217-35.1686L87.498-67.5123Q88.4551-68.502 88.4713-69.8767Q88.4876-71.2515 87.498-72.2086Q86.5083-73.1657 85.1498-73.1657Q83.7914-73.1657 82.8343-72.2086L50.458-39.8323L18.1143-72.2086Q17.1572-73.1657 15.7513-73.1657Q14.3454-73.1657 13.418-72.2086Q12.4609-71.2189 12.4609-69.8604Q12.4609-68.502 13.418-67.5123L45.7943-35.1686L13.418-2.82208Q12.4609-1.83524 12.4609-0.460485Q12.4609 0.914267 13.418 1.90111Z"/>
  </g>
  <g id="Thin-M" transform="matrix(1 0 0 1 806.889 1126)">
   <path d="M13.0287 1.41443Q13.6047 1.9281 14.3711 1.9281Q15.1375 1.9281 15.7052 1.41443L49.5333-32.476L83.3696 1.41443Q83.9374 1.9281 84.7038 1.93221Q85.4702 1.93633 86.0379 1.41443Q86.6057 0.78437 86.6057 0.022085Q86.6057-0.7402 86.0379-1.36203L52.2016-35.1443L86.0379-68.9723Q86.6057-69.5483 86.6098-70.3147Q86.6139-71.0811 86.0379-71.6489Q85.4619-72.2166 84.6996-72.2166Q83.9374-72.2166 83.3696-71.6489L49.5333-37.8126L15.7052-71.6489Q15.1375-72.2166 14.3399-72.2166Q13.5424-72.2166 13.0287-71.6489Q12.4609-71.0729 12.4609-70.3106Q12.4609-69.5483 13.0287-68.9723L46.865-35.1443L13.0287-1.36203Q12.4609-0.7402 12.4609 0.0261981Q12.4609 0.792596 13.0287 1.41443Z"/>
  </g>
  <g id="Ultralight-M" transform="matrix(1 0 0 1 510.651 1126)">
   <path d="M12.8293 1.16515Q13.1934 1.46694 13.6482 1.46694Q14.103 1.46694 14.4713 1.16515L49.0597-33.4855L83.6438 1.16515Q84.0121 1.46694 84.4669 1.46482Q84.9217 1.4627 85.2901 1.16515Q85.6584 0.734514 85.6584 0.277594Q85.6584-0.179327 85.2901-0.6142L50.7059-35.1318L85.2901-69.7202Q85.6584-70.0843 85.6563-70.5391Q85.6542-70.9939 85.2901-71.3622Q84.926-71.7305 84.4691-71.7305Q84.0121-71.7305 83.6438-71.3622L49.0597-36.7781L14.4713-71.3622Q14.103-71.7305 13.617-71.7305Q13.1311-71.7305 12.8293-71.3622Q12.4609-70.9981 12.4609-70.5412Q12.4609-70.0843 12.8293-69.7202L47.4134-35.1318L12.8293-0.6142Q12.4609-0.179327 12.4609 0.275475Q12.4609 0.730277 12.8293 1.16515Z"/>
  </g>
  <g id="Black-S" transform="matrix(1 0 0 1 2890.46 696)">
   <path d="M12.207-4.44336Q14.6484-2.00195 18.2861-2.02637Q21.9238-2.05078 24.1699-4.29688L42.9688-23.0957L61.6699-4.3457Q64.0137-1.95312 67.5781-2.00195Q71.1426-2.05078 73.6328-4.49219Q76.0742-6.93359 76.0986-10.498Q76.123-14.0625 73.7793-16.4551L55.0781-35.2051L73.7793-53.9062Q76.123-56.2988 76.0986-59.8633Q76.0742-63.4277 73.6328-65.8691Q71.1426-68.3105 67.5781-68.3594Q64.0137-68.4082 61.6699-66.0156L42.9688-47.3145L24.1699-66.0645Q21.9238-68.3105 18.2861-68.335Q14.6484-68.3594 12.207-65.918Q9.7168-63.4766 9.76562-59.8389Q9.81445-56.2012 12.0605-53.9551L30.8594-35.2051L12.0605-16.4062Q9.81445-14.1602 9.76562-10.5225Q9.7168-6.88477 12.207-4.44336Z"/>
  </g>
  <g id="Heavy-S" transform="matrix(1 0 0 1 2594.34 696)">
   <path d="M11.8959-4.73147Q14.0376-2.60123 17.2086-2.61988Q20.3795-2.63853 22.3606-4.61956L42.3695-24.64L62.3153-4.65686Q64.3709-2.56392 67.4859-2.59546Q70.6009-2.627 72.7685-4.76877Q74.8987-6.91054 74.9174-10.0198Q74.936-13.129 72.8804-15.222L52.9346-35.2051L72.8804-55.1394Q74.936-57.2438 74.9231-60.3588Q74.9102-63.4738 72.7685-65.6041Q70.5894-67.7343 67.4802-67.7716Q64.3709-67.8089 62.3153-65.716L42.3695-45.7702L22.3606-65.7533Q20.3795-67.7343 17.2028-67.753Q14.0261-67.7716 11.8959-65.6414Q9.72832-63.4996 9.76562-60.3344Q9.80293-57.1692 11.784-55.1767L31.8044-35.2051L11.784-15.1847Q9.80293-13.2036 9.76562-10.0327Q9.72832-6.86172 11.8959-4.73147Z"/>
  </g>
  <g id="Bold-S" transform="matrix(1 0 0 1 2298.29 696)">
   <path d="M11.5479-5.05371Q13.3545-3.27148 16.0034-3.28369Q18.6523-3.2959 20.3369-4.98047L41.6992-26.3672L63.0371-5.00488Q64.7705-3.24707 67.3828-3.25928Q69.9951-3.27148 71.8018-5.07812Q73.584-6.88477 73.5962-9.48486Q73.6084-12.085 71.875-13.8428L50.5371-35.2051L71.875-56.5186Q73.6084-58.3008 73.6084-60.9131Q73.6084-63.5254 71.8018-65.3076Q69.9707-67.0898 67.3706-67.1143Q64.7705-67.1387 63.0371-65.3809L41.6992-44.043L20.3369-65.4053Q18.6523-67.0898 15.9912-67.1021Q13.3301-67.1143 11.5479-65.332Q9.74121-63.5254 9.76562-60.8887Q9.79004-58.252 11.4746-56.543L32.8613-35.2051L11.4746-13.8184Q9.79004-12.1338 9.76562-9.48486Q9.74121-6.83594 11.5479-5.05371Z"/>
  </g>
  <g id="Semibold-S" transform="matrix(1 0 0 1 2002.04 696)">
   <path d="M11.3079-5.27588Q12.8835-3.73359 15.1725-3.74136Q17.4615-3.74912 18.9417-5.2293L41.2371-27.558L63.5348-5.24482Q65.046-3.71807 67.3117-3.71694Q69.5774-3.71582 71.1353-5.29141Q72.6775-6.86699 72.6853-9.11606Q72.6931-11.3651 71.1818-12.8919L48.8842-35.2051L71.1818-57.4694Q72.6931-59.0295 72.702-61.2952Q72.7108-63.5609 71.1353-65.1032Q69.5441-66.6455 67.2951-66.661Q65.046-66.6766 63.5348-65.1498L41.2371-42.8521L18.9417-65.1653Q17.4615-66.6455 15.1559-66.6533Q12.8502-66.661 11.3079-65.1188Q9.7501-63.5432 9.76562-61.2708Q9.78115-58.9984 11.2613-57.485L33.59-35.2051L11.2613-12.8764Q9.78115-11.3962 9.76562-9.10718Q9.7501-6.81816 11.3079-5.27588Z"/>
  </g>
  <g id="Medium-S" transform="matrix(1 0 0 1 1705.67 696)">
   <path d="M11.126-5.44434Q12.5264-4.08398 14.5425-4.08838Q16.5586-4.09277 17.8838-5.41797L40.8867-28.4609L63.9121-5.42676Q65.2549-4.0752 67.2578-4.06396Q69.2607-4.05273 70.6299-5.45312Q71.9902-6.85352 71.9946-8.83643Q71.999-10.8193 70.6562-12.1709L47.6309-35.2051L70.6562-58.1904Q71.999-59.582 72.0146-61.585Q72.0303-63.5879 70.6299-64.9482Q69.2207-66.3086 67.2378-66.3174Q65.2549-66.3262 63.9121-64.9746L40.8867-41.9492L17.8838-64.9834Q16.5586-66.3086 14.5225-66.313Q12.4863-66.3174 11.126-64.957Q9.75684-63.5566 9.76562-61.5605Q9.77441-59.5645 11.0996-58.1992L34.1426-35.2051L11.0996-12.1621Q9.77441-10.8369 9.76562-8.8208Q9.75684-6.80469 11.126-5.44434Z"/>
  </g>
  <g id="Regular-S" transform="matrix(1 0 0 1 1409.41 696)">
   <path d="M10.8887-5.66406Q12.0605-4.54102 13.7207-4.54102Q15.3809-4.54102 16.5039-5.66406L40.4297-29.6387L64.4043-5.66406Q65.5273-4.54102 67.1875-4.5166Q68.8477-4.49219 69.9707-5.66406Q71.0938-6.83594 71.0938-8.47168Q71.0938-10.1074 69.9707-11.2305L45.9961-35.2051L69.9707-59.1309Q71.0938-60.3027 71.1182-61.9629Q71.1426-63.623 69.9707-64.7461Q68.7988-65.8691 67.1631-65.8691Q65.5273-65.8691 64.4043-64.7461L40.4297-40.7715L16.5039-64.7461Q15.3809-65.8691 13.6963-65.8691Q12.0117-65.8691 10.8887-64.7461Q9.76562-63.5742 9.76562-61.9385Q9.76562-60.3027 10.8887-59.1309L34.8633-35.2051L10.8887-11.2305Q9.76562-10.1074 9.76562-8.44727Q9.76562-6.78711 10.8887-5.66406Z"/>
  </g>
  <g id="Light-S" transform="matrix(1 0 0 1 1113.32 696)">
   <path d="M10.6283-5.98958Q11.5234-5.14323 12.7767-5.14323Q14.0299-5.14323 14.8926-5.98958L39.8112-30.957L64.7624-5.98958Q65.625-5.14323 66.8783-5.12695Q68.1315-5.11068 68.9941-5.98958Q69.8568-6.90104 69.8568-8.13802Q69.8568-9.375 68.9941-10.2539L44.043-35.1888L68.9941-60.1074Q69.8568-61.0026 69.873-62.2559Q69.8893-63.5091 68.9941-64.3717Q68.099-65.2344 66.862-65.2344Q65.625-65.2344 64.7624-64.3717L39.8112-39.4206L14.8926-64.3717Q14.0299-65.2344 12.7523-65.2344Q11.4746-65.2344 10.6283-64.3717Q9.76562-63.4766 9.76562-62.2396Q9.76562-61.0026 10.6283-60.1074L35.5794-35.1888L10.6283-10.2539Q9.76562-9.375 9.76562-8.12174Q9.76562-6.86849 10.6283-5.98958Z"/>
  </g>
  <g id="Thin-S" transform="matrix(1 0 0 1 817.429 696)">
   <path d="M10.2838-6.42011Q10.8131-5.93971 11.5282-5.93971Q12.2433-5.93971 12.7615-6.42011L38.9932-32.7007L65.236-6.42011Q65.7542-5.93971 66.4693-5.93419Q67.1843-5.92868 67.7026-6.42011Q68.2208-6.98715 68.2208-7.69673Q68.2208-8.40631 67.7026-8.96232L41.4598-35.1673L67.7026-61.399Q68.2208-61.9282 68.2263-62.6433Q68.2318-63.3584 67.7026-63.8766Q67.1733-64.3948 66.4637-64.3948Q65.7542-64.3948 65.236-63.8766L38.9932-37.6339L12.7615-63.8766Q12.2433-64.3948 11.5037-64.3948Q10.7642-64.3948 10.2838-63.8766Q9.76562-63.3474 9.76562-62.6378Q9.76562-61.9282 10.2838-61.399L36.5266-35.1673L10.2838-8.96232Q9.76562-8.40631 9.76562-7.69122Q9.76562-6.97612 10.2838-6.42011Z"/>
  </g>
  <g id="Ultralight-S" transform="matrix(1 0 0 1 521.137 696)">
   <path d="M10.1074-6.64062Q10.4492-6.34766 10.8887-6.34766Q11.3281-6.34766 11.6699-6.64062L38.5742-33.5938L65.4785-6.64062Q65.8203-6.34766 66.2598-6.34766Q66.6992-6.34766 67.041-6.64062Q67.3828-7.03125 67.3828-7.4707Q67.3828-7.91016 67.041-8.30078L40.1367-35.1562L67.041-62.0605Q67.3828-62.4023 67.3828-62.8418Q67.3828-63.2812 67.041-63.623Q66.6992-63.9648 66.2598-63.9648Q65.8203-63.9648 65.4785-63.623L38.5742-36.7188L11.6699-63.623Q11.3281-63.9648 10.8643-63.9648Q10.4004-63.9648 10.1074-63.623Q9.76562-63.2812 9.76562-62.8418Q9.76562-62.4023 10.1074-62.0605L37.0117-35.1562L10.1074-8.30078Q9.76562-7.91016 9.76562-7.4707Q9.76562-7.03125 10.1074-6.64062Z"/>
  </g>
 </g>
</svg>
