<?xml version="1.0" encoding="UTF-8"?>
<!--Generator: Apple Native CoreSVG 175-->
<!DOCTYPE svg
PUBLIC "-//W3C//DTD SVG 1.1//EN"
       "http://www.w3.org/Graphics/SVG/1.1/DTD/svg11.dtd">
<svg version="1.1" xmlns="http://www.w3.org/2000/svg" xmlns:xlink="http://www.w3.org/1999/xlink" width="3300" height="2200">
 <!--glyph: "uni1002C2.medium", point size: 100.0, font version: "17.1d1e1", template writer version: "65.1"-->
 <g id="Notes">
  <rect height="2200" id="artboard" style="fill:white;opacity:1" width="3300" x="0" y="0"/>
  <line style="fill:none;stroke:black;opacity:1;stroke-width:0.5;" x1="263" x2="3036" y1="292" y2="292"/>
  <text style="stroke:none;fill:black;font-family:sans-serif;font-size:13;font-weight:bold;" transform="matrix(1 0 0 1 263 322)">Weight/Scale Variations</text>
  <text style="stroke:none;fill:black;font-family:sans-serif;font-size:13;text-anchor:middle;" transform="matrix(1 0 0 1 559.711 322)">Ultralight</text>
  <text style="stroke:none;fill:black;font-family:sans-serif;font-size:13;text-anchor:middle;" transform="matrix(1 0 0 1 856.422 322)">Thin</text>
  <text style="stroke:none;fill:black;font-family:sans-serif;font-size:13;text-anchor:middle;" transform="matrix(1 0 0 1 1153.13 322)">Light</text>
  <text style="stroke:none;fill:black;font-family:sans-serif;font-size:13;text-anchor:middle;" transform="matrix(1 0 0 1 1449.84 322)">Regular</text>
  <text style="stroke:none;fill:black;font-family:sans-serif;font-size:13;text-anchor:middle;" transform="matrix(1 0 0 1 1746.56 322)">Medium</text>
  <text style="stroke:none;fill:black;font-family:sans-serif;font-size:13;text-anchor:middle;" transform="matrix(1 0 0 1 2043.27 322)">Semibold</text>
  <text style="stroke:none;fill:black;font-family:sans-serif;font-size:13;text-anchor:middle;" transform="matrix(1 0 0 1 2339.98 322)">Bold</text>
  <text style="stroke:none;fill:black;font-family:sans-serif;font-size:13;text-anchor:middle;" transform="matrix(1 0 0 1 2636.69 322)">Heavy</text>
  <text style="stroke:none;fill:black;font-family:sans-serif;font-size:13;text-anchor:middle;" transform="matrix(1 0 0 1 2933.4 322)">Black</text>
  <line style="fill:none;stroke:black;opacity:1;stroke-width:0.5;" x1="263" x2="3036" y1="1903" y2="1903"/>
  <g transform="matrix(1 0 0 1 263 1933)">
   <path d="M9.24805 0.830078Q10.8691 0.830078 12.2949 0.214844Q13.7207-0.400391 14.8096-1.49414Q15.8984-2.58789 16.5186-4.01367Q17.1387-5.43945 17.1387-7.05078Q17.1387-8.66211 16.5186-10.0879Q15.8984-11.5137 14.8047-12.6074Q13.7109-13.7012 12.2852-14.3164Q10.8594-14.9316 9.23828-14.9316Q7.62695-14.9316 6.20117-14.3164Q4.77539-13.7012 3.69141-12.6074Q2.60742-11.5137 1.9873-10.0879Q1.36719-8.66211 1.36719-7.05078Q1.36719-5.43945 1.9873-4.01367Q2.60742-2.58789 3.69629-1.49414Q4.78516-0.400391 6.21094 0.214844Q7.63672 0.830078 9.24805 0.830078ZM9.24805-0.654297Q7.91992-0.654297 6.7627-1.14746Q5.60547-1.64062 4.73145-2.51953Q3.85742-3.39844 3.36426-4.56055Q2.87109-5.72266 2.87109-7.05078Q2.87109-8.37891 3.35938-9.54102Q3.84766-10.7031 4.72168-11.582Q5.5957-12.4609 6.75293-12.9541Q7.91016-13.4473 9.23828-13.4473Q10.5762-13.4473 11.7334-12.9541Q12.8906-12.4609 13.7695-11.582Q14.6484-10.7031 15.1465-9.54102Q15.6445-8.37891 15.6445-7.05078Q15.6445-5.72266 15.1514-4.56055Q14.6582-3.39844 13.7842-2.51953Q12.9102-1.64062 11.748-1.14746Q10.5859-0.654297 9.24805-0.654297ZM5.6543-7.05078Q5.6543-6.72852 5.85938-6.52832Q6.06445-6.32812 6.40625-6.32812L8.51562-6.32812L8.51562-4.20898Q8.51562-3.88672 8.71094-3.67676Q8.90625-3.4668 9.23828-3.4668Q9.56055-3.4668 9.77051-3.67676Q9.98047-3.88672 9.98047-4.20898L9.98047-6.32812L12.0898-6.32812Q12.4219-6.32812 12.627-6.52832Q12.832-6.72852 12.832-7.05078Q12.832-7.38281 12.627-7.58789Q12.4219-7.79297 12.0898-7.79297L9.98047-7.79297L9.98047-9.90234Q9.98047-10.2344 9.77051-10.4443Q9.56055-10.6543 9.23828-10.6543Q8.90625-10.6543 8.71094-10.4443Q8.51562-10.2344 8.51562-9.90234L8.51562-7.79297L6.40625-7.79297Q6.06445-7.79297 5.85938-7.58789Q5.6543-7.38281 5.6543-7.05078Z"/>
  </g>
  <g transform="matrix(1 0 0 1 281.867 1933)">
   <path d="M11.709 2.91016Q13.75 2.91016 15.5518 2.12891Q17.3535 1.34766 18.7305-0.0292969Q20.1074-1.40625 20.8887-3.20801Q21.6699-5.00977 21.6699-7.05078Q21.6699-9.0918 20.8887-10.8936Q20.1074-12.6953 18.7305-14.0723Q17.3535-15.4492 15.5469-16.2305Q13.7402-17.0117 11.6992-17.0117Q9.6582-17.0117 7.85645-16.2305Q6.05469-15.4492 4.68262-14.0723Q3.31055-12.6953 2.5293-10.8936Q1.74805-9.0918 1.74805-7.05078Q1.74805-5.00977 2.5293-3.20801Q3.31055-1.40625 4.6875-0.0292969Q6.06445 1.34766 7.86621 2.12891Q9.66797 2.91016 11.709 2.91016ZM11.709 1.25Q9.98047 1.25 8.47656 0.605469Q6.97266-0.0390625 5.83496-1.17676Q4.69727-2.31445 4.05762-3.81836Q3.41797-5.32227 3.41797-7.05078Q3.41797-8.7793 4.05762-10.2832Q4.69727-11.7871 5.83008-12.9297Q6.96289-14.0723 8.4668-14.7119Q9.9707-15.3516 11.6992-15.3516Q13.4277-15.3516 14.9316-14.7119Q16.4355-14.0723 17.5781-12.9297Q18.7207-11.7871 19.3652-10.2832Q20.0098-8.7793 20.0098-7.05078Q20.0098-5.32227 19.3701-3.81836Q18.7305-2.31445 17.5928-1.17676Q16.4551-0.0390625 14.9463 0.605469Q13.4375 1.25 11.709 1.25ZM7.17773-7.05078Q7.17773-6.69922 7.41211-6.47461Q7.64648-6.25 8.01758-6.25L10.8887-6.25L10.8887-3.36914Q10.8887-2.99805 11.1133-2.76855Q11.3379-2.53906 11.6895-2.53906Q12.0605-2.53906 12.29-2.76855Q12.5195-2.99805 12.5195-3.36914L12.5195-6.25L15.4004-6.25Q15.7715-6.25 16.001-6.47461Q16.2305-6.69922 16.2305-7.05078Q16.2305-7.42188 16.001-7.65137Q15.7715-7.88086 15.4004-7.88086L12.5195-7.88086L12.5195-10.752Q12.5195-11.1328 12.29-11.3623Q12.0605-11.5918 11.6895-11.5918Q11.3379-11.5918 11.1133-11.3574Q10.8887-11.123 10.8887-10.752L10.8887-7.88086L8.01758-7.88086Q7.63672-7.88086 7.40723-7.65137Q7.17773-7.42188 7.17773-7.05078Z"/>
  </g>
  <g transform="matrix(1 0 0 1 305.646 1933)">
   <path d="M14.9707 5.66406Q17.0605 5.66406 18.96 5.01465Q20.8594 4.36523 22.4512 3.19336Q24.043 2.02148 25.2197 0.429688Q26.3965-1.16211 27.0459-3.06641Q27.6953-4.9707 27.6953-7.05078Q27.6953-9.14062 27.0459-11.04Q26.3965-12.9395 25.2197-14.5312Q24.043-16.123 22.4512-17.2998Q20.8594-18.4766 18.9551-19.126Q17.0508-19.7754 14.9609-19.7754Q12.8711-19.7754 10.9717-19.126Q9.07227-18.4766 7.48535-17.2998Q5.89844-16.123 4.72168-14.5312Q3.54492-12.9395 2.90039-11.04Q2.25586-9.14062 2.25586-7.05078Q2.25586-4.9707 2.90527-3.06641Q3.55469-1.16211 4.72656 0.429688Q5.89844 2.02148 7.49023 3.19336Q9.08203 4.36523 10.9814 5.01465Q12.8809 5.66406 14.9707 5.66406ZM14.9707 3.84766Q13.1641 3.84766 11.5283 3.2959Q9.89258 2.74414 8.53516 1.74805Q7.17773 0.751953 6.17676-0.610352Q5.17578-1.97266 4.62891-3.6084Q4.08203-5.24414 4.08203-7.05078Q4.08203-8.86719 4.62891-10.5029Q5.17578-12.1387 6.17188-13.501Q7.16797-14.8633 8.52539-15.8594Q9.88281-16.8555 11.5186-17.4023Q13.1543-17.9492 14.9609-17.9492Q16.7773-17.9492 18.4131-17.4023Q20.0488-16.8555 21.4111-15.8594Q22.7734-14.8633 23.7695-13.501Q24.7656-12.1387 25.3174-10.5029Q25.8691-8.86719 25.8691-7.05078Q25.8789-5.24414 25.332-3.6084Q24.7852-1.97266 23.7842-0.610352Q22.7832 0.751953 21.4209 1.74805Q20.0586 2.74414 18.4229 3.2959Q16.7871 3.84766 14.9707 3.84766ZM9.19922-7.05078Q9.19922-6.66992 9.45801-6.4209Q9.7168-6.17188 10.1172-6.17188L14.0625-6.17188L14.0625-2.2168Q14.0625-1.81641 14.3115-1.55762Q14.5605-1.29883 14.9512-1.29883Q15.3516-1.29883 15.6104-1.55273Q15.8691-1.80664 15.8691-2.2168L15.8691-6.17188L19.8242-6.17188Q20.2246-6.17188 20.4785-6.4209Q20.7324-6.66992 20.7324-7.05078Q20.7324-7.46094 20.4785-7.71484Q20.2246-7.96875 19.8242-7.96875L15.8691-7.96875L15.8691-11.9141Q15.8691-12.3242 15.6104-12.583Q15.3516-12.8418 14.9512-12.8418Q14.5605-12.8418 14.3115-12.583Q14.0625-12.3242 14.0625-11.9141L14.0625-7.96875L10.1172-7.96875Q9.70703-7.96875 9.45312-7.71484Q9.19922-7.46094 9.19922-7.05078Z"/>
  </g>
  <text style="stroke:none;fill:black;font-family:sans-serif;font-size:13;font-weight:bold;" transform="matrix(1 0 0 1 263 1953)">Design Variations</text>
  <text style="stroke:none;fill:black;font-family:sans-serif;font-size:13;" transform="matrix(1 0 0 1 263 1971)">Symbols are supported in up to nine weights and three scales.</text>
  <text style="stroke:none;fill:black;font-family:sans-serif;font-size:13;" transform="matrix(1 0 0 1 263 1989)">For optimal layout with text and other symbols, vertically align</text>
  <text style="stroke:none;fill:black;font-family:sans-serif;font-size:13;" transform="matrix(1 0 0 1 263 2007)">symbols with the adjacent text.</text>
  <line style="fill:none;stroke:#00AEEF;stroke-width:0.5;opacity:1.0;" x1="776" x2="776" y1="1919" y2="1933"/>
  <g transform="matrix(1 0 0 1 776 1933)">
   <path d="M3.31055 0.15625Q3.70117 0.15625 3.91602-0.00976562Q4.13086-0.175781 4.26758-0.585938L5.52734-4.0332L11.2891-4.0332L12.5488-0.585938Q12.6855-0.175781 12.9004-0.00976562Q13.1152 0.15625 13.4961 0.15625Q13.8867 0.15625 14.1162-0.0585938Q14.3457-0.273438 14.3457-0.644531Q14.3457-0.869141 14.2383-1.17188L9.6582-13.3691Q9.48242-13.8184 9.17969-14.043Q8.87695-14.2676 8.4082-14.2676Q7.5-14.2676 7.17773-13.3789L2.59766-1.16211Q2.49023-0.859375 2.49023-0.634766Q2.49023-0.263672 2.70996-0.0537109Q2.92969 0.15625 3.31055 0.15625ZM6.00586-5.51758L8.37891-12.0898L8.42773-12.0898L10.8008-5.51758Z"/>
  </g>
  <line style="fill:none;stroke:#00AEEF;stroke-width:0.5;opacity:1.0;" x1="793.197" x2="793.197" y1="1919" y2="1933"/>
  <text style="stroke:none;fill:black;font-family:sans-serif;font-size:13;font-weight:bold;" transform="matrix(1 0 0 1 776 1953)">Margins</text>
  <text style="stroke:none;fill:black;font-family:sans-serif;font-size:13;" transform="matrix(1 0 0 1 776 1971)">Leading and trailing margins on the left and right side of each symbol</text>
  <text style="stroke:none;fill:black;font-family:sans-serif;font-size:13;" transform="matrix(1 0 0 1 776 1989)">can be adjusted by modifying the x-location of the margin guidelines.</text>
  <text style="stroke:none;fill:black;font-family:sans-serif;font-size:13;" transform="matrix(1 0 0 1 776 2007)">Modifications are automatically applied proportionally to all</text>
  <text style="stroke:none;fill:black;font-family:sans-serif;font-size:13;" transform="matrix(1 0 0 1 776 2025)">scales and weights.</text>
  <g transform="matrix(1 0 0 1 1289 1933)">
   <path d="M2.8418 1.86523L4.54102 3.57422Q5.18555 4.22852 5.90332 4.17969Q6.62109 4.13086 7.31445 3.35938L18.0078-8.42773L17.041-9.4043L6.42578 2.27539Q6.16211 2.57812 5.89355 2.61719Q5.625 2.65625 5.27344 2.30469L4.10156 1.14258Q3.75 0.791016 3.79395 0.522461Q3.83789 0.253906 4.14062-0.0195312L15.6152-10.8203L14.6387-11.7871L3.04688-0.898438Q2.30469-0.214844 2.25098 0.498047Q2.19727 1.21094 2.8418 1.86523ZM9.25781-16.3281Q8.94531-16.0254 8.90625-15.6348Q8.86719-15.2441 9.04297-14.9512Q9.21875-14.6777 9.55566-14.541Q9.89258-14.4043 10.3809-14.5215Q11.4746-14.7754 12.5977-14.7314Q13.7207-14.6875 14.7949-13.9844L14.209-12.5293Q13.9551-11.9043 14.0674-11.4404Q14.1797-10.9766 14.5801-10.5664L16.875-8.25195Q17.2363-7.88086 17.5781-7.82227Q17.9199-7.76367 18.3398-7.8418L19.4043-8.03711L20.0684-7.36328L20.0293-6.80664Q20-6.43555 20.1221-6.12305Q20.2441-5.81055 20.6055-5.44922L21.3672-4.70703Q21.7285-4.3457 22.1533-4.33105Q22.5781-4.31641 22.9297-4.66797L25.8398-7.58789Q26.1914-7.93945 26.1816-8.35449Q26.1719-8.76953 25.8105-9.13086L25.0391-9.89258Q24.6875-10.2539 24.3799-10.3857Q24.0723-10.5176 23.7109-10.4883L23.1348-10.4395L22.4902-11.0742L22.7344-12.1973Q22.832-12.6172 22.6953-12.9834Q22.5586-13.3496 22.1191-13.7891L19.9219-15.9766Q18.6719-17.2168 17.2607-17.8369Q15.8496-18.457 14.4189-18.4814Q12.9883-18.5059 11.665-17.959Q10.3418-17.4121 9.25781-16.3281ZM10.752-15.957Q11.6602-16.6211 12.7002-16.9043Q13.7402-17.1875 14.8047-17.085Q15.8691-16.9824 16.8701-16.5137Q17.8711-16.0449 18.7012-15.2051L21.1328-12.793Q21.3086-12.6172 21.3525-12.4512Q21.3965-12.2852 21.3379-12.0312L21.0156-10.5469L22.5195-9.0625L23.5059-9.12109Q23.6914-9.13086 23.7891-9.09668Q23.8867-9.0625 24.0332-8.91602L24.6094-8.33984L22.168-5.89844L21.5918-6.47461Q21.4453-6.62109 21.4062-6.71875Q21.3672-6.81641 21.377-7.01172L21.4453-7.98828L19.9512-9.47266L18.4277-9.21875Q18.1836-9.16992 18.042-9.2041Q17.9004-9.23828 17.7148-9.41406L15.7129-11.416Q15.5176-11.5918 15.4932-11.7529Q15.4688-11.9141 15.5859-12.1875L16.4648-14.2773Q15.293-15.3711 13.8281-15.791Q12.3633-16.2109 10.8398-15.7617Q10.7227-15.7324 10.6885-15.8057Q10.6543-15.8789 10.752-15.957Z"/>
  </g>
  <text style="stroke:none;fill:black;font-family:sans-serif;font-size:13;font-weight:bold;" transform="matrix(1 0 0 1 1289 1953)">Exporting</text>
  <text style="stroke:none;fill:black;font-family:sans-serif;font-size:13;" transform="matrix(1 0 0 1 1289 1971)">Symbols should be outlined when exporting to ensure the</text>
  <text style="stroke:none;fill:black;font-family:sans-serif;font-size:13;" transform="matrix(1 0 0 1 1289 1989)">design is preserved when submitting to Xcode.</text>
  <text id="template-version" style="stroke:none;fill:black;font-family:sans-serif;font-size:13;text-anchor:end;" transform="matrix(1 0 0 1 3036 1933)">Template v.3.0</text>
  <text style="stroke:none;fill:black;font-family:sans-serif;font-size:13;text-anchor:end;" transform="matrix(1 0 0 1 3036 1951)">Requires Xcode 13 or greater</text>
  <text id="descriptive-name" style="stroke:none;fill:black;font-family:sans-serif;font-size:13;text-anchor:end;" transform="matrix(1 0 0 1 3036 1969)">Generated from star</text>
  <text style="stroke:none;fill:black;font-family:sans-serif;font-size:13;text-anchor:end;" transform="matrix(1 0 0 1 3036 1987)">Typeset at 100 points</text>
  <text style="stroke:none;fill:black;font-family:sans-serif;font-size:13;" transform="matrix(1 0 0 1 263 726)">Small</text>
  <text style="stroke:none;fill:black;font-family:sans-serif;font-size:13;" transform="matrix(1 0 0 1 263 1156)">Medium</text>
  <text style="stroke:none;fill:black;font-family:sans-serif;font-size:13;" transform="matrix(1 0 0 1 263 1586)">Large</text>
 </g>
 <g id="Guides">
  <g id="H-reference" style="fill:#27AAE1;stroke:none;" transform="matrix(1 0 0 1 339 696)">
   <path d="M0.976562 0L3.66211 0L29.3457-67.1387L30.0293-67.1387L30.0293-70.459L28.125-70.459ZM11.6699-24.4629L46.9727-24.4629L46.2402-26.709L12.4512-26.709ZM55.127 0L57.7637 0L30.6152-70.459L29.4434-70.459L29.4434-67.1387Z"/>
  </g>
  <line id="Baseline-S" style="fill:none;stroke:#27AAE1;opacity:1;stroke-width:0.5;" x1="263" x2="3036" y1="696" y2="696"/>
  <line id="Capline-S" style="fill:none;stroke:#27AAE1;opacity:1;stroke-width:0.5;" x1="263" x2="3036" y1="625.541" y2="625.541"/>
  <g id="H-reference" style="fill:#27AAE1;stroke:none;" transform="matrix(1 0 0 1 339 1126)">
   <path d="M0.976562 0L3.66211 0L29.3457-67.1387L30.0293-67.1387L30.0293-70.459L28.125-70.459ZM11.6699-24.4629L46.9727-24.4629L46.2402-26.709L12.4512-26.709ZM55.127 0L57.7637 0L30.6152-70.459L29.4434-70.459L29.4434-67.1387Z"/>
  </g>
  <line id="Baseline-M" style="fill:none;stroke:#27AAE1;opacity:1;stroke-width:0.5;" x1="263" x2="3036" y1="1126" y2="1126"/>
  <line id="Capline-M" style="fill:none;stroke:#27AAE1;opacity:1;stroke-width:0.5;" x1="263" x2="3036" y1="1055.54" y2="1055.54"/>
  <g id="H-reference" style="fill:#27AAE1;stroke:none;" transform="matrix(1 0 0 1 339 1556)">
   <path d="M0.976562 0L3.66211 0L29.3457-67.1387L30.0293-67.1387L30.0293-70.459L28.125-70.459ZM11.6699-24.4629L46.9727-24.4629L46.2402-26.709L12.4512-26.709ZM55.127 0L57.7637 0L30.6152-70.459L29.4434-70.459L29.4434-67.1387Z"/>
  </g>
  <line id="Baseline-L" style="fill:none;stroke:#27AAE1;opacity:1;stroke-width:0.5;" x1="263" x2="3036" y1="1556" y2="1556"/>
  <line id="Capline-L" style="fill:none;stroke:#27AAE1;opacity:1;stroke-width:0.5;" x1="263" x2="3036" y1="1485.54" y2="1485.54"/>
  <line id="left-margin-Regular-M" style="fill:none;stroke:#00AEEF;stroke-width:0.5;opacity:1.0;" x1="1385.68" x2="1385.68" y1="1030.79" y2="1150.12"/>
  <line id="right-margin-Regular-M" style="fill:none;stroke:#00AEEF;stroke-width:0.5;opacity:1.0;" x1="1514.01" x2="1514.01" y1="1030.79" y2="1150.12"/>
 </g>
 <g id="Symbols">
  <g id="Black-L" transform="matrix(1 0 0 1 2846.39 1556)">
   <path d="M41.3447 28.3324Q44.5091 30.7637 48.328 30.1897Q52.147 29.6156 56.2128 26.5798L87.0107 3.95844L117.771 26.5798Q121.898 29.6156 125.717 30.1897Q129.536 30.7637 132.679 28.3324Q135.823 25.9594 136.486 22.1807Q137.149 18.402 135.522 13.716L123.318-22.4125L154.378-44.6577Q158.502-47.5923 160.195-51.0454Q161.888-54.4984 160.603-58.2363Q159.32-62.0118 155.955-63.7932Q152.59-65.5745 147.55-65.5161L109.524-65.1983L97.9556-101.625Q96.4091-106.425 93.6781-109.078Q90.947-111.73 87.0107-111.73Q83.0769-111.73 80.3562-109.078Q77.6355-106.425 76.067-101.625L64.4989-65.1983L26.4144-65.5161Q21.4534-65.5745 18.0789-63.7932Q14.7044-62.0118 13.4199-58.2947Q12.0771-54.4984 13.8279-51.0454Q15.5787-47.5923 19.6459-44.6577L50.7044-22.4125L38.5019 13.716Q36.8738 18.402 37.566 22.1807Q38.2582 25.9594 41.3447 28.3324ZM59.2868 3.71321Q59.1467 3.55366 59.2297 3.26065L69.2793-22.9485Q70.6196-26.8126 70.2188-28.7903Q69.818-30.7681 66.0551-33.1932L42.5802-48.5882Q42.3105-48.7749 42.3325-48.959Q42.3546-49.1212 42.7644-49.1212L70.7763-47.7419Q74.896-47.6628 76.6623-48.8154Q78.4287-49.9681 79.477-53.9126L86.7435-80.9703Q86.8278-81.3204 87.0107-81.3204Q87.1948-81.3204 87.2791-80.9703L94.5456-53.9126Q95.6147-49.9681 97.3999-48.8154Q99.185-47.6628 103.327-47.7419L131.318-49.1212Q131.726-49.1212 131.748-48.959Q131.77-48.8333 131.502-48.5882L107.969-33.1348Q104.285-30.7097 103.845-28.7611Q103.404-26.8126 104.764-22.9485L114.793 3.26065Q114.876 3.55366 114.736 3.71321Q114.654 3.81564 114.364 3.6082L92.4898-14.0391Q89.1979-16.6005 87.0509-16.6005Q84.9039-16.6005 81.5341-14.0391L59.681 3.6082Q59.3906 3.81564 59.2868 3.71321Z"/>
  </g>
  <g id="Heavy-L" transform="matrix(1 0 0 1 2550.75 1556)">
   <path d="M40.9189 27.7151Q43.7821 29.9056 47.2465 29.3714Q50.7109 28.8372 54.4703 26.0243L85.9315 2.92534L117.378 26.0243Q121.194 28.8372 124.658 29.3714Q128.123 29.9056 130.956 27.7151Q133.789 25.5693 134.383 22.1451Q134.977 18.7209 133.471 14.3599L121.031-22.5707L152.763-45.3215Q156.567-48.0242 158.121-51.1553Q159.674-54.2864 158.514-57.6674Q157.365-61.0633 154.304-62.6735Q151.243-64.2838 146.569-64.2392L107.699-63.9356L95.8666-101.146Q94.4408-105.584 91.9645-108.002Q89.4881-110.421 85.9315-110.421Q82.3869-110.421 79.9254-108.002Q77.464-105.584 76.0024-101.146L64.1696-63.9356L25.255-64.2392Q20.656-64.2838 17.583-62.6735Q14.51-61.0633 13.3553-57.712Q12.1559-54.2864 13.7511-51.1553Q15.3464-48.0242 19.1118-45.3215L50.838-22.5707L38.4041 14.3599Q36.8918 18.7209 37.508 22.1451Q38.1242 25.5693 40.9189 27.7151ZM56.6128 6.18586Q56.4817 6.03106 56.5742 5.68199L67.2468-22.9804Q68.4075-26.3464 68.0114-28.1965Q67.6154-30.0467 64.3595-32.1538L38.9172-49.1204Q38.61-49.3352 38.6458-49.5379Q38.6816-49.7047 39.1199-49.7047L69.6681-48.4966Q73.2484-48.4222 74.8826-49.4983Q76.5169-50.5745 77.4545-54.0209L85.6363-83.4391Q85.7348-83.8268 85.9315-83.8268Q86.1341-83.8268 86.2327-83.4391L94.4145-54.0209Q95.3819-50.5745 97.0235-49.4983Q98.6652-48.4222 102.281-48.4966L132.8-49.7047Q133.232-49.7047 133.268-49.5379Q133.304-49.3798 133.002-49.1204L107.515-32.1092Q104.334-30.0021 103.901-28.1742Q103.468-26.3464 104.652-22.9804L115.295 5.68199Q115.387 6.03106 115.256 6.18586Q115.17 6.30208 114.833 6.05757L90.8427-12.9475Q87.9885-15.1676 85.9717-15.1676Q83.9548-15.1676 81.0323-12.9475L57.072 6.05757Q56.735 6.30208 56.6128 6.18586Z"/>
  </g>
  <g id="Bold-L" transform="matrix(1 0 0 1 2255.41 1556)">
   <path d="M40.3851 26.9095Q42.8622 28.793 45.874 28.3193Q48.8857 27.8456 52.2418 25.3252L84.5631 1.61137L116.892 25.3252Q120.306 27.8456 123.318 28.3193Q126.329 28.793 128.769 26.9095Q131.21 25.0552 131.722 22.0836Q132.234 19.1121 130.886 15.1781L118.147-22.7851L150.747-46.1907Q154.132-48.5938 155.499-51.3158Q156.867-54.0378 155.863-56.962Q154.888-59.8784 152.217-61.2772Q149.546-62.6759 145.355-62.6467L105.397-62.3677L93.216-100.587Q91.9483-104.551 89.7943-106.666Q87.6403-108.78 84.5631-108.78Q81.5143-108.78 79.3788-106.666Q77.2433-104.551 75.9243-100.587L63.7437-62.3677L23.7565-62.6467Q19.6317-62.6759 16.9492-61.2772Q14.2667-59.8784 13.2772-56.9912Q12.2586-54.0378 13.648-51.3158Q15.0375-48.5938 18.4078-46.1907L50.9931-22.7851L38.2687 15.1781Q36.9063 19.1121 37.4331 22.0836Q37.9599 25.0552 40.3851 26.9095ZM53.2789 9.22242Q53.1551 9.07581 53.2639 8.64676L64.6853-23.0102Q65.6364-25.7845 65.2486-27.4689Q64.8607-29.1533 62.2038-30.8876L34.3706-49.7878Q34.007-50.0425 34.0582-50.2688Q34.1094-50.4439 34.5968-50.4439L68.2414-49.4472Q71.1837-49.381 72.6486-50.3586Q74.1135-51.3363 74.9186-54.191L84.2279-86.4858Q84.351-86.9298 84.5631-86.9298Q84.7893-86.9298 84.9124-86.4858L94.2218-54.191Q95.0639-51.3363 96.5248-50.3586Q97.9858-49.381 100.979-49.4472L134.587-50.4439Q135.06-50.4439 135.111-50.2688Q135.163-50.0717 134.813-49.7878L106.951-30.8584Q104.36-29.1241 103.939-27.4543Q103.518-25.7845 104.492-23.0102L115.876 8.64676Q115.985 9.07581 115.861 9.22242Q115.767 9.35406 115.366 9.06233L88.7872-11.5911Q86.4457-13.4065 84.6033-13.4065Q82.7609-13.4065 80.3674-11.5911L53.8254 9.06233Q53.4248 9.35406 53.2789 9.22242Z"/>
  </g>
  <g id="Semibold-L" transform="matrix(1 0 0 1 1959.64 1556)">
   <path d="M40.017 26.3541Q42.2281 28.026 44.9278 27.594Q47.6274 27.162 50.7055 24.8432L83.6197 0.705532L116.557 24.8432Q119.694 27.162 122.393 27.594Q125.093 28.026 127.262 26.3541Q129.431 24.7007 129.887 22.0413Q130.343 19.3818 129.104 15.7421L116.159-22.9329L149.357-46.79Q152.453-48.9864 153.692-51.4264Q154.931-53.8664 154.036-56.4757Q153.18-59.0616 150.778-60.3145Q148.376-61.5674 144.517-61.5489L103.809-61.2868L91.3887-100.202Q90.2299-103.839 88.2982-105.744Q86.3664-107.649 83.6197-107.649Q80.9127-107.649 79.0019-105.744Q77.0911-103.839 75.8705-100.202L63.45-61.2868L22.7234-61.5489Q18.9255-61.5674 16.5122-60.3145Q14.0989-59.0616 13.2234-56.4943Q12.3293-53.8664 13.5769-51.4264Q14.8246-48.9864 17.9225-46.79L51.1001-22.9329L38.1753 15.7421Q36.9163 19.3818 37.3814 22.0413Q37.8466 24.7007 40.017 26.3541ZM50.9806 11.3158Q50.8617 11.1748 50.9819 10.6906L62.9195-23.0308Q63.7261-25.3972 63.3439-26.9673Q62.9616-28.5375 60.7177-30.0146L31.2361-50.2478Q30.8337-50.5301 30.8955-50.7727Q30.9574-50.9534 31.4787-50.9534L67.2578-50.1026Q69.7604-50.042 71.1085-50.9517Q72.4566-51.8614 73.1703-54.3082L83.257-88.5862Q83.397-89.069 83.6197-89.069Q83.8622-89.069 84.0023-88.5862L94.0889-54.3082Q94.8446-51.8614 96.181-50.9517Q97.5174-50.042 100.082-50.1026L135.819-50.9534Q136.32-50.9534 136.382-50.7727Q136.444-50.5487 136.062-50.2478L106.561-29.996Q104.378-28.5189 103.965-26.9581Q103.553-25.3972 104.382-23.0308L116.277 10.6906Q116.398 11.1748 116.279 11.3158Q116.178 11.4581 115.734 11.1338L87.3701-10.656Q85.382-12.1924 83.6599-12.1924Q81.9377-12.1924 79.909-10.656L51.5872 11.1338Q51.1427 11.4581 50.9806 11.3158Z"/>
  </g>
  <g id="Medium-L" transform="matrix(1 0 0 1 1663.64 1556)">
   <path d="M39.7379 25.933Q41.7473 27.4444 44.2103 27.0441Q46.6733 26.6437 49.5406 24.4777L82.9044 0.0186865L116.303 24.4777Q119.229 26.6437 121.692 27.0441Q124.156 27.4444 126.119 25.933Q128.083 24.432 128.496 22.0092Q128.909 19.5864 127.752 16.1698L114.652-23.045L148.302-47.2443Q151.18-49.2841 152.322-51.5103Q153.464-53.7364 152.65-56.107Q151.885-58.4422 149.687-59.5846Q147.489-60.7269 143.882-60.7164L102.606-60.4672L90.0032-99.9097Q88.927-103.299 87.1638-105.045Q85.4005-106.791 82.9044-106.791Q80.4565-106.791 78.7162-105.045Q76.9758-103.299 75.8297-99.9097L63.2274-60.4672L21.9401-60.7164Q18.39-60.7269 16.1809-59.5846Q13.9717-58.4422 13.1826-56.1175Q12.383-53.7364 13.523-51.5103Q14.6631-49.2841 17.5545-47.2443L51.1812-23.045L38.1045 16.1698Q36.9238 19.5864 37.3423 22.0092Q37.7607 24.432 39.7379 25.933ZM49.2379 12.9031Q49.1228 12.7664 49.2515 12.2404L61.5805-23.0464Q62.2776-25.1035 61.8997-26.587Q61.5217-28.0705 59.5908-29.3527L28.8595-50.5967Q28.4276-50.8999 28.4975-51.1548Q28.5674-51.3398 29.1144-51.3398L66.5121-50.5995Q68.6811-50.5433 69.9407-51.4015Q71.2002-52.2596 71.8447-54.3971L82.5207-90.1787Q82.6736-90.6911 82.9044-90.6911Q83.1593-90.6911 83.3122-90.1787L93.9882-54.3971Q94.6784-52.2596 95.9204-51.4015Q97.1623-50.5433 99.4012-50.5995L136.753-51.3398Q137.276-51.3398 137.346-51.1548Q137.416-50.9104 137.008-50.5967L106.266-29.3422Q104.392-28.06 103.986-26.5818Q103.579-25.1035 104.298-23.0464L116.581 12.2404Q116.71 12.7664 116.595 12.9031Q116.49 13.0534 116.013 12.7045L86.2956-9.94703Q84.5756-11.2718 82.9446-11.2718Q81.3136-11.2718 79.5614-9.94703L49.8901 12.7045Q49.4124 13.0534 49.2379 12.9031Z"/>
  </g>
  <g id="Regular-L" transform="matrix(1 0 0 1 1367.86 1556)">
   <path d="M39.3739 25.3837Q41.1201 26.6859 43.2745 26.3267Q45.4289 25.9676 48.0212 24.001L81.9714-0.877199L115.972 24.001Q118.624 25.9676 120.778 26.3267Q122.933 26.6859 124.628 25.3837Q126.324 24.0815 126.681 21.9673Q127.039 19.8531 125.99 16.7276L112.685-23.1912L146.928-47.837Q149.52-49.6724 150.535-51.6197Q151.549-53.5669 150.843-55.626Q150.196-57.6344 148.264-58.6325Q146.332-59.6307 143.054-59.6307L101.035-59.3982L88.1959-99.5286Q87.2276-102.595 85.6841-104.134Q84.1406-105.673 81.9714-105.673Q79.8616-105.673 78.3435-104.134Q76.8253-102.595 75.7765-99.5286L62.937-59.3982L20.9184-59.6307Q17.6915-59.6307 15.7487-58.6325Q13.8058-57.6344 13.1294-55.626Q12.4529-53.5669 13.4527-51.6197Q14.4525-49.6724 17.0746-47.837L51.287-23.1912L38.0122 16.7276Q36.9337 19.8531 37.2912 21.9673Q37.6487 24.0815 39.3739 25.3837ZM46.9648 14.9735Q46.8547 14.8424 46.9946 14.2618L59.8341-23.0668Q60.3882-24.7205 60.0159-26.0909Q59.6435-27.4614 58.121-28.4893L25.7595-51.0517Q25.2891-51.3822 25.3696-51.6532Q25.45-51.8437 26.0305-51.8437L65.5393-51.2477Q67.2734-51.197 68.4175-51.988Q69.5616-52.779 70.1157-54.5131L81.5605-92.256Q81.7301-92.8068 81.9714-92.8068Q82.2424-92.8068 82.412-92.256L93.8568-54.5131Q94.4616-52.779 95.5803-51.988Q96.6991-51.197 98.5136-51.2477L137.972-51.8437Q138.522-51.8437 138.603-51.6532Q138.683-51.3822 138.243-51.0517L105.881-28.4893Q104.409-27.4614 104.012-26.0909Q103.614-24.7205 104.189-23.0668L116.978 14.2618Q117.118 14.8424 117.008 14.9735Q116.897 15.1343 116.376 14.7532L84.8941-9.02223Q83.5236-10.071 82.0116-10.071Q80.4995-10.071 79.1081-9.02223L47.6765 14.7532Q47.1554 15.1343 46.9648 14.9735Z"/>
  </g>
  <g id="Light-L" transform="matrix(1 0 0 1 1072.29 1556)">
   <path d="M38.9635 24.5628Q40.3608 25.5982 42.115 25.3519Q43.8692 25.1056 46.0305 23.4469L80.8221-2.00591L115.644 23.4469Q117.906 25.1056 119.66 25.3519Q121.414 25.5982 122.781 24.5628Q124.148 23.5274 124.475 21.8134Q124.802 20.0994 123.917 17.4254L110.367-23.458L145.43-48.74Q147.591-50.2881 148.39-51.8864Q149.189-53.4848 148.606-55.1335Q148.124-56.752 146.55-57.6064Q144.977-58.4609 142.213-58.4609L99.168-58.29L85.9591-99.3644Q85.1548-101.938 83.8781-103.179Q82.6015-104.421 80.8221-104.421Q79.1433-104.421 77.8817-103.179Q76.6201-101.938 75.7355-99.3644L62.5265-58.29L19.4819-58.4609Q16.7475-58.4609 15.1843-57.6064Q13.6211-56.752 13.0883-55.1335Q12.5556-53.4848 13.3296-51.8864Q14.1037-50.2881 16.3153-48.74L51.328-23.458L37.8275 17.4254Q36.8926 20.0994 37.2194 21.8134Q37.5461 23.5274 38.9635 24.5628ZM44.5227 16.9025Q44.392 16.792 44.573 16.0883L57.7819-23.0258Q58.2745-24.4331 57.9226-25.6395Q57.5708-26.8458 56.274-27.7505L22.5581-51.5647Q21.9851-51.9568 22.0655-52.2483Q22.1459-52.4594 22.8496-52.4594L64.2054-52.007Q65.6932-51.9769 66.6834-52.6755Q67.6735-53.3742 68.1661-54.862L80.3497-94.2877Q80.5809-94.9411 80.8221-94.9411Q81.1136-94.9411 81.3448-94.2877L93.5284-54.862Q94.0511-53.3742 95.0262-52.6755Q96.0013-51.9769 97.5696-52.007L138.895-52.4594Q139.549-52.4594 139.629-52.2483Q139.709-51.9568 139.187-51.5647L105.471-27.7505Q104.204-26.8458 103.837-25.6395Q103.47-24.4331 103.943-23.0258L117.122 16.0883Q117.302 16.792 117.172 16.9025Q117.041 17.0634 116.438 16.6412L83.3755-8.0577Q82.1692-8.94233 80.8623-8.94233Q79.5555-8.94233 78.3693-8.0577L45.3369 16.6412Q44.7338 17.0634 44.5227 16.9025Z"/>
  </g>
  <g id="Thin-L" transform="matrix(1 0 0 1 777.081 1556)">
   <path d="M38.4207 23.4771Q39.3566 24.1597 40.5815 24.0627Q41.8064 23.9657 43.3978 22.7141L79.3022-3.49872L115.21 22.7141Q116.956 23.9657 118.181 24.0627Q119.406 24.1597 120.339 23.4771Q121.271 22.7945 121.557 21.6098Q121.843 20.4251 121.176 18.3482L107.299-23.8108L143.448-49.9342Q145.039-51.1023 145.554-52.2393Q146.068-53.3763 145.648-54.4821Q145.382-55.5849 144.284-56.2493Q143.186-56.9138 141.1-56.9138L96.6981-56.8243L83.0006-99.1473Q82.4135-101.069 81.4897-101.917Q80.5658-102.765 79.3022-102.765Q78.1934-102.765 77.271-101.917Q76.3487-101.069 75.6812-99.1473L61.9837-56.8243L17.5819-56.9138Q15.499-56.9138 14.4379-56.2493Q13.3769-55.5849 13.0341-54.4821Q12.6913-53.3763 13.1668-52.2393Q13.6423-51.1023 15.311-49.9342L51.3823-23.8108L37.5833 18.3482Q36.8384 20.4251 37.1244 21.6098Q37.4104 22.7945 38.4207 23.4771ZM41.2928 19.4539Q41.135 19.3705 41.3702 18.5039L55.0677-22.9715Q55.4789-24.0532 55.1542-25.0423Q54.8295-26.0315 53.8312-26.7734L18.3239-52.2433Q17.6152-52.7168 17.6957-53.0354Q17.7761-53.2737 18.6426-53.2737L62.4412-53.0113Q63.6032-53.0083 64.3899-53.5848Q65.1765-54.1613 65.5876-55.3234L78.7483-96.9747Q79.0609-97.7639 79.3022-97.7639Q79.6208-97.7639 79.9335-96.9747L93.0941-55.3234Q93.5083-54.1613 94.2934-53.5848Q95.0785-53.0083 96.321-53.0113L140.117-53.2737Q140.906-53.2737 140.986-53.0354Q141.067-52.7168 140.435-52.2433L104.928-26.7734Q103.933-26.0315 103.607-25.0423Q103.28-24.0532 103.617-22.9715L117.312 18.5039Q117.547 19.3705 117.389 19.4539Q117.231 19.6147 116.519 19.1382L81.367-6.78203Q80.3778-7.44953 79.3424-7.44953Q78.307-7.44953 77.3922-6.78203L42.2428 19.1382Q41.5311 19.6147 41.2928 19.4539Z"/>
  </g>
  <g id="Ultralight-L" transform="matrix(1 0 0 1 481.142 1556)">
   <path d="M38.1426 22.921Q38.8422 23.4229 39.796 23.4023Q40.7499 23.3818 42.0493 22.3388L78.5237-4.26332L114.987 22.3388Q116.469 23.3818 117.423 23.4023Q118.377 23.4229 119.087 22.921Q119.798 22.4192 120.063 21.5055Q120.328 20.5919 119.772 18.8209L105.729-23.9916L142.433-50.5459Q143.733-51.5194 144.101-52.42Q144.469-53.3206 144.132-54.1484Q143.978-54.9871 143.123-55.5542Q142.268-56.1214 140.53-56.1214L95.433-56.0736L81.4853-99.036Q81.0094-100.624 80.2663-101.271Q79.5232-101.917 78.5237-101.917Q77.7068-101.917 76.9582-101.271Q76.2097-100.624 75.6534-99.036L61.7056-56.0736L16.6088-56.1214Q14.8595-56.1214 14.0556-55.5542Q13.2517-54.9871 13.0063-54.1484Q12.7608-53.3206 13.0833-52.42Q13.4059-51.5194 14.7966-50.5459L51.4101-23.9916L37.4581 18.8209Q36.8106 20.5919 37.0757 21.5055Q37.3408 22.4192 38.1426 22.921ZM39.6385 20.7607Q39.4668 20.6911 39.7298 19.7412L53.6775-22.9437Q54.047-23.8585 53.7362-24.7365Q53.4254-25.6145 52.5801-26.2729L16.1552-52.5908Q15.377-53.106 15.4574-53.4386Q15.5379-53.6907 16.4878-53.6907L61.5375-53.5257Q62.5328-53.5365 63.2151-54.0505Q63.8975-54.5645 64.2669-55.5597L77.9281-98.351Q78.2824-99.2097 78.5237-99.2097Q78.8562-99.2097 79.2106-98.351L92.8717-55.5597Q93.2303-54.5645 93.9181-54.0505Q94.6059-53.5365 95.6815-53.5257L140.742-53.6907Q141.601-53.6907 141.681-53.4386Q141.762-53.106 141.075-52.5908L104.65-26.2729Q103.794-25.6145 103.488-24.7365Q103.183-23.8585 103.45-22.9437L117.409 19.7412Q117.672 20.6911 117.5 20.7607Q117.328 20.9215 116.561 20.4172L80.3382-6.12864Q79.4603-6.68492 78.5639-6.68492Q77.6675-6.68492 76.8917-6.12864L40.6579 20.4172Q39.8906 20.9215 39.6385 20.7607Z"/>
  </g>
  <g id="Black-M" transform="matrix(1 0 0 1 2865.22 1126)">
   <path d="M32.3418 14.4338Q35.0051 16.4884 38.2142 16.0247Q41.4233 15.5609 44.7784 13.0592L68.1826-4.13401L91.5353 13.0592Q94.9468 15.5609 98.1559 16.0247Q101.365 16.4884 104.023 14.4338Q106.681 12.4363 107.249 9.25834Q107.818 6.08036 106.476 2.23181L97.1913-25.1998L120.788-42.0857Q124.2-44.5197 125.602-47.4243Q127.005-50.329 125.918-53.476Q124.83-56.6745 122.011-58.1822Q119.192-59.6898 115.042-59.6327L86.1675-59.3826L77.3826-87.0585Q76.103-91.0219 73.8044-93.2379Q71.5058-95.454 68.1826-95.454Q64.8588-95.454 62.563-93.2379Q60.2671-91.0219 58.9823-87.0585L50.1974-59.3826L21.2662-59.6327Q17.1783-59.6898 14.3562-58.1822Q11.5341-56.6745 10.447-53.5331Q9.30271-50.329 10.7623-47.4243Q12.2219-44.5197 15.5766-42.0857L39.1736-25.1998L29.8882 2.23181Q28.5466 6.08036 29.144 9.25834Q29.7415 12.4363 32.3418 14.4338ZM47.8993-6.92265Q47.7802-7.04757 47.8419-7.24307L55.1423-25.682Q56.3268-29.0703 56.015-30.69Q55.7031-32.3096 52.3826-34.445L35.7031-45.1911Q35.5125-45.32 35.5177-45.4495Q35.5229-45.5738 35.8326-45.5738L55.605-44.3777Q59.227-44.3151 60.6881-45.2614Q62.1492-46.2076 63.0483-49.6583L67.9914-68.8203Q68.0528-69.0732 68.1826-69.0732Q68.3121-69.0732 68.3735-68.8203L73.3167-49.6583Q74.2212-46.2076 75.7081-45.2614Q77.195-44.3151 80.8222-44.3777L100.589-45.5738Q100.899-45.5738 100.904-45.4495Q100.91-45.3771 100.719-45.1911L83.982-34.3879Q80.7241-32.2525 80.3809-30.6614Q80.0378-29.0703 81.2281-25.682L88.523-7.24307Q88.5847-7.04757 88.4656-6.92265Q88.4036-6.85514 88.2075-6.98956L72.8656-19.6199Q69.9612-21.8753 68.2138-21.8753Q66.4663-21.8753 63.499-19.6199L48.1626-6.98956Q47.9665-6.85514 47.8993-6.92265Z"/>
  </g>
  <g id="Heavy-M" transform="matrix(1 0 0 1 2569.45 1126)">
   <path d="M31.9634 13.9061Q34.3644 15.7498 37.2639 15.3147Q40.1633 14.8795 43.2585 12.5672L67.2336-5.03981L91.1814 12.5672Q94.325 14.8795 97.2245 15.3147Q100.124 15.7498 102.509 13.9061Q104.893 12.1061 105.398 9.23772Q105.902 6.36938 104.663 2.7969L95.1693-25.3299L119.348-42.6514Q122.486-44.8851 123.772-47.5072Q125.058-50.1293 124.082-52.9653Q123.111-55.8287 120.556-57.1823Q118-58.536 114.161-58.4924L84.5563-58.2505L75.5468-86.6053Q74.3701-90.2602 72.2958-92.2746Q70.2216-94.2891 67.2336-94.2891Q64.2506-94.2891 62.1845-92.2746Q60.1183-90.2602 58.9229-86.6053L49.9134-58.2505L20.2653-58.4924Q16.4859-58.536 13.9235-57.1823Q11.3612-55.8287 10.3876-53.0089Q9.37036-50.1293 10.6987-47.5072Q12.0269-44.8851 15.1246-42.6514L39.3004-25.3299L29.8095 2.7969Q28.568 6.36938 29.094 9.23772Q29.62 12.1061 31.9634 13.9061ZM45.5105-4.68343Q45.4021-4.8056 45.4693-5.04455L53.3447-25.7169Q54.3593-28.6411 54.0502-30.1511Q53.7411-31.6612 50.8955-33.4972L32.4175-45.6641Q32.1997-45.8147 32.2184-45.9605Q32.2371-46.0875 32.5633-46.0875L54.6448-45.0454Q57.7621-44.9855 59.1083-45.8655Q60.4545-46.7455 61.2509-49.732L67.0207-71.0463Q67.0903-71.3264 67.2336-71.3264Q67.3794-71.3264 67.449-71.0463L73.2188-49.732Q74.0315-46.7455 75.3913-45.8655Q76.7512-44.9855 79.8873-45.0454L101.952-46.0875Q102.276-46.0875 102.295-45.9605Q102.314-45.8583 102.098-45.6641L83.5767-33.4535Q80.7909-31.6176 80.4519-30.1293Q80.1129-28.6411 81.1412-25.7169L89.0004-5.04455Q89.0676-4.8056 88.9592-4.68343Q88.8945-4.60244 88.6604-4.76931L71.3955-18.6417Q68.9039-20.5787 67.2648-20.5787Q65.6256-20.5787 63.0767-18.6417L45.828-4.76931Q45.5939-4.60244 45.5105-4.68343Z"/>
  </g>
  <g id="Bold-M" transform="matrix(1 0 0 1 2273.8 1126)">
   <path d="M31.5402 13.3158Q33.6476 14.9236 36.2008 14.5204Q38.7539 14.1173 41.5584 12.0169L66.1721-6.05307L90.7855 12.0169Q93.6295 14.1173 96.1827 14.5204Q98.7358 14.9236 100.815 13.3158Q102.894 11.7366 103.326 9.21465Q103.758 6.69268 102.634 3.42904L92.9075-25.4753L117.736-43.2841Q120.569-45.2939 121.725-47.6Q122.881-49.906 122.029-52.3941Q121.188-54.8824 118.927-56.0639Q116.667-57.2453 113.176-57.2167L82.7541-56.9841L73.4932-86.0984Q72.4315-89.4081 70.6083-91.1971Q68.7851-92.9861 66.1721-92.9861Q63.5701-92.9861 61.761-91.1971Q59.9519-89.4081 58.8565-86.0984L49.5956-56.9841L19.1456-57.2167Q15.7113-57.2453 13.4395-56.0639Q11.1677-54.8824 10.3211-52.4226Q9.44603-49.906 10.6274-47.6Q11.8089-45.2939 14.6189-43.2841L39.4422-25.4753L29.7215 3.42904Q28.592 6.69268 29.038 9.21465Q29.484 11.7366 31.5402 13.3158ZM42.8383-2.17854Q42.7419-2.29763 42.8153-2.58518L51.3339-25.756Q52.1583-28.1609 51.8523-29.5484Q51.5463-30.9359 49.2319-32.4368L28.7422-46.1932Q28.4939-46.3681 28.5277-46.532Q28.5614-46.6621 28.9061-46.6621L53.5706-45.7922Q56.1235-45.7355 57.3411-46.5413Q58.5587-47.3472 59.2404-49.8144L65.9348-73.5364Q66.0137-73.847 66.1721-73.847Q66.336-73.847 66.4148-73.5364L73.1093-49.8144Q73.8192-47.3472 75.037-46.5413Q76.2548-45.7355 78.8414-45.7922L103.478-46.6621Q103.817-46.6621 103.851-46.532Q103.884-46.3967 103.642-46.1932L83.1232-32.4083Q80.8657-30.9073 80.5313-29.5341Q80.1969-28.1609 81.044-25.756L89.5344-2.58518Q89.6078-2.29763 89.5114-2.17854Q89.4436-2.08248 89.167-2.28564L69.751-17.5476Q67.7212-19.1283 66.2032-19.1283Q64.6853-19.1283 62.6042-17.5476L43.2164-2.28564Q42.9399-2.08248 42.8383-2.17854Z"/>
  </g>
  <g id="Semibold-M" transform="matrix(1 0 0 1 1977.82 1126)">
   <path d="M31.2484 12.9089Q33.1535 14.354 35.4679 13.9729Q37.7822 13.5918 40.3863 11.6375L65.4402-6.75161L90.5125 11.6375Q93.1501 13.5918 95.4644 13.9729Q97.7787 14.354 99.6474 12.9089Q101.516 11.4819 101.898 9.19875Q102.28 6.91556 101.235 3.86483L91.3482-25.5757L116.626-43.7203Q119.248-45.5758 120.314-47.6639Q121.379-49.752 120.613-52.0003Q119.861-54.2301 117.804-55.2928Q115.747-56.3554 112.496-56.3373L81.5116-56.111L72.0775-85.7489Q71.0951-88.8207 69.4449-90.4542Q67.7947-92.0878 65.4402-92.0878Q63.101-92.0878 61.4691-90.4542Q59.8372-88.8207 58.8107-85.7489L49.3766-56.111L18.3737-56.3373Q15.1773-56.3554 13.1058-55.2928Q11.0343-54.2301 10.2753-52.0184Q9.49819-49.752 10.5783-47.6639Q11.6585-45.5758 14.2702-43.7203L39.54-25.5757L29.6609 3.86483Q28.6086 6.91556 28.9994 9.19875Q29.3903 11.4819 31.2484 12.9089ZM40.9961-0.451679Q40.908-0.568648 40.9856-0.889702L49.9476-25.7829Q50.641-27.8298 50.3371-29.1328Q50.0332-30.4358 48.0851-31.7058L26.2084-46.5579Q25.9392-46.7496 25.9833-46.926Q26.0275-47.0583 26.3848-47.0583L52.8301-46.3071Q54.9938-46.2525 56.1228-47.0072Q57.2517-47.762 57.8543-49.8712L65.1863-75.2531Q65.2715-75.5847 65.4402-75.5847Q65.6166-75.5847 65.7019-75.2531L73.0338-49.8712Q73.6729-47.762 74.7927-47.0072Q75.9125-46.2525 78.1203-46.3071L104.529-47.0583Q104.879-47.0583 104.923-46.926Q104.967-46.7678 104.705-46.5579L82.8107-31.6877Q80.9172-30.4176 80.586-29.1237Q80.2548-27.8298 80.977-25.7829L89.9026-0.889702Q89.9802-0.568648 89.892-0.451679Q89.8221-0.345227 89.5163-0.573413L68.6173-16.7933Q66.9058-18.1284 65.4714-18.1284Q64.037-18.1284 62.2785-16.7933L41.4159-0.573413Q41.1102-0.345227 40.9961-0.451679Z"/>
  </g>
  <g id="Medium-M" transform="matrix(1 0 0 1 1681.67 1126)">
   <path d="M31.0271 12.6003Q32.7789 13.9221 34.9122 13.5577Q37.0454 13.1933 39.4976 11.3498L64.8853-7.28127L90.3056 11.3498Q92.7865 13.1933 94.9198 13.5577Q97.0531 13.9221 98.762 12.6003Q100.471 11.2888 100.815 9.18669Q101.159 7.08456 100.174 4.19526L90.1658-25.6517L115.783-44.0511Q118.246-45.7895 119.243-47.7124Q120.241-49.6353 119.539-51.7017Q118.856-53.7355 116.953-54.7081Q115.05-55.6807 111.981-55.6705L80.5695-55.449L71.004-85.4839Q70.0817-88.3752 68.5628-89.8909Q67.0438-91.4066 64.8853-91.4066Q62.7454-91.4066 61.2478-89.8909Q59.7502-88.3752 58.7759-85.4839L49.2105-55.449L17.7884-55.6705Q14.7724-55.6807 12.8528-54.7081Q10.9331-53.7355 10.2406-51.7119Q9.53775-49.6353 10.5411-47.7124Q11.5445-45.7895 14.0059-44.0511L39.6141-25.6517L29.6149 4.19526Q28.6211 7.08456 28.9701 9.18669Q29.3192 11.2888 31.0271 12.6003ZM39.5992 0.857697Q39.5174 0.742336 39.5982 0.395877L48.8965-25.8033Q49.4905-27.5788 49.1882-28.8177Q48.8859-30.0566 47.2155-31.1515L24.2872-46.8345Q24.002-47.0389 24.0541-47.2248Q24.1061-47.3586 24.4731-47.3586L52.2686-46.6976Q54.1372-46.6445 55.199-47.3605Q56.2607-48.0765 56.8034-49.9143L64.6186-76.5548Q64.7087-76.9023 64.8853-76.9023Q65.0712-76.9023 65.1613-76.5548L72.9765-49.9143Q73.5619-48.0765 74.6075-47.3605Q75.653-46.6445 77.5736-46.6976L105.326-47.3586Q105.684-47.3586 105.736-47.2248Q105.788-47.0492 105.512-46.8345L82.5737-31.1413Q80.9563-30.0464 80.6275-28.8126Q80.2987-27.5788 80.9262-25.8033L90.1817 0.395877Q90.2625 0.742336 90.1807 0.857697Q90.1091 0.972029 89.7812 0.724868L67.7577-16.2213Q66.2875-17.3703 64.9165-17.3703Q63.5454-17.3703 62.0315-16.2213L40.0508 0.724868Q39.7228 0.972029 39.5992 0.857697Z"/>
  </g>
  <g id="Regular-M" transform="matrix(1 0 0 1 1385.68 1126)">
   <path d="M30.7385 12.1978Q32.2902 13.3588 34.1873 13.0162Q36.0844 12.6736 38.3384 10.9746L64.1615-7.97214L90.0357 10.9746Q92.3123 12.6736 94.2094 13.0162Q96.1065 13.3588 97.6072 12.1978Q99.1079 11.0369 99.4025 9.17097Q99.697 7.30499 98.7908 4.62627L88.6236-25.7509L114.685-44.4825Q116.939-46.0682 117.848-47.7756Q118.756-49.483 118.139-51.3122Q117.545-53.0904 115.843-53.9455Q114.141-54.8007 111.309-54.8007L79.3406-54.5855L69.6038-85.1382Q68.76-87.7943 67.4122-89.1562Q66.0643-90.5182 64.1615-90.5182Q62.2814-90.5182 60.9591-89.1562Q59.6367-87.7943 58.7306-85.1382L48.9938-54.5855L17.025-54.8007Q14.2443-54.8007 12.5228-53.9455Q10.8012-53.0904 10.1953-51.3122Q9.58934-49.483 10.4926-47.7756Q11.3958-46.0682 13.6611-44.4825L39.7108-25.7509L29.5549 4.62627Q28.6375 7.30499 28.932 9.17097Q29.2265 11.0369 30.7385 12.1978ZM37.7773 2.56558Q37.7036 2.45231 37.7886 2.07272L47.5254-25.8299Q47.9898-27.2514 47.6897-28.4068Q47.3895-29.5621 46.0813-30.4286L21.7813-47.1953Q21.4754-47.4162 21.5377-47.6145Q21.6-47.7504 21.9796-47.7504L51.5362-47.2068Q53.02-47.1558 53.9941-47.8213Q54.9681-48.4867 55.4325-49.9705L63.8783-78.2526Q63.9746-78.6208 64.1615-78.6208Q64.3598-78.6208 64.4561-78.2526L72.9019-49.9705Q73.4172-48.4867 74.3658-47.8213Q75.3145-47.1558 76.8605-47.2068L106.366-47.7504Q106.734-47.7504 106.797-47.6145Q106.859-47.4162 106.564-47.1953L82.2645-30.4286Q81.0073-29.5621 80.6816-28.4068Q80.3559-27.2514 80.86-25.8299L90.5458 2.07272Q90.6308 2.45231 90.5572 2.56558Q90.4835 2.69019 90.1266 2.41828L66.6364-15.4753Q65.4811-16.3814 64.1927-16.3814Q62.9043-16.3814 61.7093-15.4753L38.2701 2.41828Q37.9132 2.69019 37.7773 2.56558Z"/>
  </g>
  <g id="Light-M" transform="matrix(1 0 0 1 1089.99 1126)">
   <path d="M30.3705 11.4619Q31.6094 12.3836 33.1478 12.1422Q34.6861 11.9008 36.5537 10.4779L63.1312-8.98408L89.7413 10.4779Q91.6683 11.9008 93.2067 12.1422Q94.745 12.3836 95.9513 11.4619Q97.1577 10.5402 97.4246 9.03297Q97.6915 7.52578 96.9325 5.25183L86.5446-25.9901L113.342-45.292Q115.209-46.6202 115.925-48.0148Q116.641-49.4094 116.134-50.8706Q115.686-52.2992 114.306-53.0256Q112.927-53.7519 110.555-53.7519L77.6663-53.592L67.5983-84.991Q66.9017-87.2055 65.793-88.3007Q64.6844-89.3959 63.1312-89.3959Q61.6375-89.3959 60.5451-88.3007Q59.4528-87.2055 58.6938-84.991L48.6258-53.592L15.737-53.7519Q13.398-53.7519 12.0168-53.0256Q10.6356-52.2992 10.1585-50.8706Q9.68134-49.4094 10.3822-48.0148Q11.083-46.6202 12.9803-45.292L39.7476-25.9901L29.3893 5.25183Q28.6007 7.52578 28.8676 9.03297Q29.1345 10.5402 30.3705 11.4619ZM35.5878 4.29508Q35.4957 4.20022 35.6175 3.71023L45.6855-25.7931Q46.0947-26.9938 45.813-28.002Q45.5312-29.0101 44.4254-29.7662L18.9111-47.6552Q18.5131-47.9314 18.5754-48.148Q18.6377-48.3024 19.1277-48.3024L50.3403-47.8876Q51.6032-47.855 52.4393-48.4376Q53.2754-49.0203 53.6846-50.2833L62.7927-80.0741Q62.9443-80.5343 63.1312-80.5343Q63.3479-80.5343 63.4994-80.0741L72.6075-50.2833Q73.0493-49.0203 73.8691-48.4376Q74.6889-47.855 76.0142-47.8876L107.194-48.3024Q107.654-48.3024 107.717-48.148Q107.779-47.9314 107.411-47.6552L81.8965-29.7662Q80.8233-29.0101 80.5252-28.002Q80.2271-26.9938 80.6392-25.7931L90.6746 3.71023Q90.7964 4.20022 90.7044 4.29508Q90.6123 4.41969 90.1818 4.11099L65.2749-14.6105Q64.2668-15.3694 63.1623-15.3694Q62.0579-15.3694 61.047-14.6105L36.1726 4.11099Q35.7421 4.41969 35.5878 4.29508Z"/>
  </g>
  <g id="Thin-M" transform="matrix(1 0 0 1 794.627 1126)">
   <path d="M29.8839 10.4885Q30.7091 11.0939 31.7729 10.9864Q32.8367 10.8788 34.1933 9.82084L61.7685-10.3225L89.3519 9.82084Q90.8166 10.8788 91.8805 10.9864Q92.9443 11.0939 93.7613 10.4885Q94.5782 9.88314 94.8086 8.85047Q95.039 7.81779 94.4748 6.0792L83.7948-26.3064L111.565-46.3628Q112.922-47.3502 113.382-48.3311Q113.842-49.3121 113.481-50.2866Q113.229-51.2528 112.275-51.8089Q111.321-52.3649 109.557-52.3649L75.4519-52.2779L64.9459-84.7964Q64.4439-86.4268 63.6516-87.1691Q62.8593-87.9115 61.7685-87.9115Q60.7858-87.9115 59.9976-87.1691Q59.2094-86.4268 58.6452-84.7964L48.1391-52.2779L14.0336-52.3649Q12.2786-52.3649 11.3476-51.8089Q10.4166-51.2528 10.1098-50.2866Q9.80301-49.3121 10.2362-48.3311Q10.6693-47.3502 12.08-46.3628L39.7962-26.3064L29.1703 6.0792Q28.552 7.81779 28.7824 8.85047Q29.0128 9.88314 29.8839 10.4885ZM32.692 6.5825Q32.5756 6.51197 32.7461 5.87597L43.2521-25.7445Q43.5883-26.6532 43.3309-27.4666Q43.0734-28.2801 42.2353-28.8902L15.1149-48.2636Q14.5953-48.6127 14.6576-48.8537Q14.7199-49.0324 15.3559-49.0324L48.7585-48.7879Q49.7295-48.7797 50.3831-49.2528Q51.0367-49.726 51.3729-50.697L61.357-82.4832Q61.5816-83.0651 61.7685-83.0651Q62.0095-83.0651 62.234-82.4832L72.2181-50.697Q72.5626-49.726 73.212-49.2528Q73.8615-48.7797 74.8948-48.7879L108.289-49.0324Q108.871-49.0324 108.933-48.8537Q108.996-48.6127 108.53-48.2636L81.4098-28.8902Q80.5799-28.2801 80.3184-27.4666Q80.0568-26.6532 80.3472-25.7445L90.845 5.87597Q91.0154 6.51197 90.899 6.5825Q90.7827 6.70711 90.2548 6.34973L63.4742-13.4668Q62.6607-14.0311 61.7996-14.0311Q60.9386-14.0311 60.1709-13.4668L33.3985 6.34973Q32.8707 6.70711 32.692 6.5825Z"/>
  </g>
  <g id="Ultralight-M" transform="matrix(1 0 0 1 498.607 1126)">
   <path d="M29.6346 9.98997Q30.2479 10.4333 31.0687 10.3943Q31.8895 10.3553 32.9843 9.48431L61.0705-11.008L89.1525 9.48431Q90.3804 10.3553 91.2012 10.3943Q92.022 10.4333 92.6395 9.98997Q93.2571 9.54662 93.4688 8.75699Q93.6805 7.96736 93.2159 6.50297L82.3864-26.4685L110.655-46.9112Q111.75-47.7241 112.079-48.4932Q112.409-49.2622 112.123-49.9875Q111.97-50.7169 111.234-51.1857Q110.498-51.6545 109.046-51.6545L74.3177-51.6049L63.5873-84.6967Q63.1851-86.028 62.5548-86.5896Q61.9246-87.1512 61.0705-87.1512Q60.3495-87.1512 59.7172-86.5896Q59.0848-86.028 58.6202-84.6967L47.8899-51.6049L13.1612-51.6545Q11.7053-51.6545 11.0049-51.1857Q10.3044-50.7169 10.0849-49.9875Q9.86533-49.2622 10.1614-48.4932Q10.4575-47.7241 11.6188-46.9112L39.8212-26.4685L29.0582 6.50297Q28.5271 7.96736 28.7388 8.75699Q28.9505 9.54662 29.6346 9.98997ZM31.2088 7.7541Q31.08 7.69603 31.2754 6.98525L42.0057-25.7196Q42.3045-26.4787 42.0596-27.1924Q41.8146-27.9062 41.1135-28.4415L13.1706-48.5752Q12.5886-48.9617 12.6509-49.2152Q12.7133-49.4063 13.424-49.4063L47.9484-49.2491Q48.7698-49.2533 49.3299-49.6704Q49.89-50.0874 50.1888-50.9089L60.6217-83.7171Q60.8836-84.3613 61.0705-84.3613Q61.324-84.3613 61.5859-83.7171L72.0187-50.9089Q72.3133-50.0874 72.8755-49.6704Q73.4378-49.2533 74.3215-49.2491L108.85-49.4063Q109.494-49.4063 109.557-49.2152Q109.619-48.9617 109.104-48.5752L81.1606-28.4415Q80.4553-27.9062 80.2124-27.1924Q79.9696-26.4787 80.1976-25.7196L90.9322 6.98525Q91.1276 7.69603 90.9987 7.7541Q90.8699 7.87871 90.2922 7.4964L62.5518-12.881Q61.8381-13.3455 61.1017-13.3455Q60.3652-13.3455 59.7223-12.881L31.9777 7.4964Q31.4 7.87871 31.2088 7.7541Z"/>
  </g>
  <g id="Black-S" transform="matrix(1 0 0 1 2879.74 696)">
   <path d="M25.4395 3.80859Q27.5879 5.46875 30.1758 5.10254Q32.7637 4.73633 35.4492 2.73438L53.6621-10.6445L71.8262 2.73438Q74.5605 4.73633 77.1484 5.10254Q79.7363 5.46875 81.8848 3.80859Q84.0332 2.19727 84.4971-0.366211Q84.9609-2.92969 83.8867-6.00586L76.6602-27.3438L95.0195-40.4785Q97.7539-42.4316 98.877-44.7754Q100-47.1191 99.1211-49.6582Q98.2422-52.2461 95.9717-53.4668Q93.7012-54.6875 90.3809-54.6387L67.9199-54.4434L61.084-75.9766Q60.0586-79.1504 58.2031-80.9326Q56.3477-82.7148 53.6621-82.7148Q50.9766-82.7148 49.1211-80.9326Q47.2656-79.1504 46.2402-75.9766L39.4043-54.4434L16.8945-54.6387Q13.623-54.6875 11.3525-53.4668Q9.08203-52.2461 8.20312-49.707Q7.27539-47.1191 8.44727-44.7754Q9.61914-42.4316 12.3047-40.4785L30.6641-27.3438L23.4375-6.00586Q22.3633-2.92969 22.8516-0.366211Q23.3398 2.19727 25.4395 3.80859ZM38.1348-13.623Q38.0371-13.7207 38.0859-13.8672L43.6523-27.7344Q44.6289-30.5176 44.3848-31.8115Q44.1406-33.1055 41.4062-34.8633L28.8086-42.9199Q28.6621-43.0176 28.6621-43.1152Q28.6621-43.2129 28.9062-43.2129L43.7988-42.2363Q46.7773-42.1875 47.9492-42.9443Q49.1211-43.7012 49.8535-46.5332L53.5156-60.9863Q53.5645-61.1816 53.6621-61.1816Q53.7598-61.1816 53.8086-60.9863L57.4707-46.5332Q58.2031-43.7012 59.3994-42.9443Q60.5957-42.1875 63.5742-42.2363L78.4668-43.2129Q78.7109-43.2129 78.7109-43.1152Q78.7109-43.0664 78.5645-42.9199L65.918-34.8145Q63.2324-33.0566 62.9639-31.7871Q62.6953-30.5176 63.6719-27.7344L69.2383-13.8672Q69.2871-13.7207 69.1895-13.623Q69.1406-13.5742 68.9941-13.6719L57.4707-23.2422Q55.0781-25.0977 53.6865-25.0977Q52.2949-25.0977 49.8535-23.2422L38.3301-13.6719Q38.1836-13.5742 38.1348-13.623Z"/>
  </g>
  <g id="Heavy-S" transform="matrix(1 0 0 1 2583.71 696)">
   <path d="M25.1629 3.45134Q27.1269 4.96167 29.4958 4.60699Q31.8648 4.2523 34.3774 2.37712L52.9822-11.2899L71.5611 2.37712Q74.1111 4.2523 76.48 4.60699Q78.8489 4.96167 80.8015 3.45134Q82.754 1.9783 83.166-0.366211Q83.578-2.71072 82.5729-5.6025L75.1965-27.4244L93.9593-40.8588Q96.5093-42.6737 97.5574-44.8157Q98.6055-46.9578 97.8073-49.2779Q97.0091-51.6238 94.923-52.7292Q92.8368-53.8347 89.724-53.7974L66.756-53.6021L59.7702-75.6078Q58.814-78.5742 57.1198-80.2181Q55.4257-81.862 52.9822-81.862Q50.5386-81.862 48.8503-80.2181Q47.1619-78.5742 46.1941-75.6078L39.2084-53.6021L16.2031-53.7974Q13.139-53.8347 11.0471-52.7292Q8.95526-51.6238 8.15703-49.3152Q7.32149-46.9578 8.40693-44.8157Q9.49237-42.6737 12.0051-40.8588L30.7678-27.4244L23.3914-5.6025Q22.3863-2.71072 22.817-0.366211Q23.2476 1.9783 25.1629 3.45134ZM36.3715-11.929Q36.2854-12.0266 36.3342-12.1961L42.3501-27.7689Q43.1883-30.1834 42.9442-31.4024Q42.7001-32.6214 40.346-34.1372L26.3654-43.2657Q26.2074-43.3748 26.2189-43.484Q26.2304-43.5817 26.4746-43.5817L43.1304-42.7204Q45.7056-42.6715 46.7968-43.3823Q47.888-44.093 48.5397-46.5563L52.8242-62.6574Q52.873-62.8642 52.9822-62.8642Q53.0913-62.8642 53.1402-62.6574L57.4246-46.5563Q58.0879-44.093 59.192-43.3823Q60.2961-42.6715 62.8828-42.7204L79.527-43.5817Q79.7712-43.5817 79.7827-43.484Q79.7942-43.4121 79.6362-43.2657L65.6183-34.0999Q63.3131-32.5841 63.0445-31.3838Q62.776-30.1834 63.6258-27.7689L69.6301-12.1961Q69.6789-12.0266 69.5928-11.929Q69.544-11.8686 69.3744-11.9893L56.3874-22.5161Q54.329-24.1181 53.0066-24.1181Q51.6841-24.1181 49.5769-22.5161L36.6014-11.9893Q36.4319-11.8686 36.3715-11.929Z"/>
  </g>
  <g id="Bold-S" transform="matrix(1 0 0 1 2287.76 696)">
   <path d="M24.8535 3.05176Q26.6113 4.39453 28.7354 4.05273Q30.8594 3.71094 33.1787 1.97754L52.2217-12.0117L71.2646 1.97754Q73.6084 3.71094 75.7324 4.05273Q77.8564 4.39453 79.5898 3.05176Q81.3232 1.7334 81.6772-0.366211Q82.0312-2.46582 81.1035-5.15137L73.5596-27.5146L92.7734-41.2842Q95.1172-42.9443 96.0815-44.8608Q97.0459-46.7773 96.3379-48.8525Q95.6299-50.9277 93.75-51.9043Q91.8701-52.8809 88.9893-52.8564L65.4541-52.6611L58.3008-75.1953Q57.4219-77.9297 55.9082-79.4189Q54.3945-80.9082 52.2217-80.9082Q50.0488-80.9082 48.5474-79.4189Q47.0459-77.9297 46.1426-75.1953L38.9893-52.6611L15.4297-52.8564Q12.5977-52.8809 10.7056-51.9043Q8.81348-50.9277 8.10547-48.877Q7.37305-46.7773 8.36182-44.8608Q9.35059-42.9443 11.6699-41.2842L30.8838-27.5146L23.3398-5.15137Q22.4121-2.46582 22.7783-0.366211Q23.1445 1.7334 24.8535 3.05176ZM34.3994-10.0342Q34.3262-10.1318 34.375-10.3271L40.8936-27.8076Q41.5771-29.8096 41.333-30.9448Q41.0889-32.0801 39.1602-33.3252L23.6328-43.6523Q23.4619-43.7744 23.4863-43.8965Q23.5107-43.9941 23.7549-43.9941L42.3828-43.2617Q44.5068-43.2129 45.5078-43.8721Q46.5088-44.5312 47.0703-46.582L52.0508-64.5264Q52.0996-64.7461 52.2217-64.7461Q52.3438-64.7461 52.3926-64.5264L57.373-46.582Q57.959-44.5312 58.96-43.8721Q59.9609-43.2129 62.1094-43.2617L80.7129-43.9941Q80.957-43.9941 80.9814-43.8965Q81.0059-43.7988 80.835-43.6523L65.2832-33.3008Q63.4033-32.0557 63.1348-30.9326Q62.8662-29.8096 63.5742-27.8076L70.0684-10.3271Q70.1172-10.1318 70.0439-10.0342Q69.9951-9.96094 69.7998-10.1074L55.1758-21.7041Q53.4912-23.0225 52.2461-23.0225Q51.001-23.0225 49.2676-21.7041L34.668-10.1074Q34.4727-9.96094 34.3994-10.0342Z"/>
  </g>
  <g id="Semibold-S" transform="matrix(1 0 0 1 1991.57 696)">
   <path d="M24.6402 2.77627Q26.2559 4.00352 28.211 3.67061Q30.1662 3.3377 32.3522 1.70205L51.6974-12.5094L71.0603 1.70205Q73.2618 3.3377 75.217 3.67061Q77.1722 4.00352 78.7545 2.77627Q80.3368 1.56455 80.6508-0.366211Q80.9648-2.29697 80.0904-4.84033L72.431-27.5769L91.9559-41.5774Q94.1574-43.131 95.064-44.8919Q95.9706-46.6529 95.3248-48.5593Q94.679-50.4479 92.9413-51.3355Q91.2036-52.2232 88.4827-52.2077L64.5565-52.0124L57.2877-74.9109Q56.4621-77.4854 55.0729-78.868Q53.6836-80.2506 51.6974-80.2506Q49.7111-80.2506 48.3385-78.868Q46.9659-77.4854 46.107-74.9109L38.8382-52.0124L14.8965-52.2077Q12.2244-52.2232 10.4701-51.3355Q8.71572-50.4479 8.06992-48.5748Q7.40859-46.6529 8.33071-44.8919Q9.25283-43.131 11.4389-41.5774L30.9638-27.5769L23.3043-4.84033Q22.4299-2.29697 22.7517-0.366211Q23.0734 1.56455 24.6402 2.77627ZM33.0397-8.72783Q32.9754-8.82549 33.0242-9.03857L39.8894-27.8343Q40.4663-29.5519 40.2222-30.6293Q39.978-31.7068 38.3426-32.7653L21.7488-43.9189Q21.569-44.0499 21.6023-44.1809Q21.6356-44.2785 21.8798-44.2785L41.8674-43.635Q43.6804-43.5861 44.6191-44.2098Q45.5579-44.8334 46.0572-46.5998L51.5176-65.8149Q51.5664-66.0436 51.6974-66.0436Q51.8283-66.0436 51.8771-65.8149L57.3375-46.5998Q57.8701-44.8334 58.8-44.2098Q59.7299-43.5861 61.5762-43.635L81.5305-44.2785Q81.7746-44.2785 81.8079-44.1809Q81.8412-44.0654 81.6614-43.9189L65.0521-32.7498Q63.4655-31.6913 63.197-30.6216Q62.9284-29.5519 63.5387-27.8343L70.3705-9.03857Q70.4193-8.82549 70.355-8.72783Q70.3062-8.6457 70.0931-8.80996L54.3404-21.1442Q52.9136-22.2671 51.7218-22.2671Q50.53-22.2671 49.0543-21.1442L33.335-8.80996Q33.1219-8.6457 33.0397-8.72783Z"/>
  </g>
  <g id="Medium-S" transform="matrix(1 0 0 1 1695.26 696)">
   <path d="M24.4785 2.56738Q25.9863 3.70703 27.8135 3.38086Q29.6406 3.05469 31.7256 1.49316L51.2998-12.8867L70.9053 1.49316Q72.999 3.05469 74.8262 3.38086Q76.6533 3.70703 78.1211 2.56738Q79.5889 1.43652 79.8726-0.366211Q80.1562-2.16895 79.3223-4.60449L71.5752-27.624L91.3359-41.7998Q93.4297-43.2725 94.2925-44.9155Q95.1553-46.5586 94.5566-48.3369Q93.958-50.084 92.3281-50.9043Q90.6982-51.7246 88.0986-51.7158L63.876-51.5205L56.5195-74.6953Q55.7344-77.1484 54.4395-78.4502Q53.1445-79.752 51.2998-79.752Q49.4551-79.752 48.1802-78.4502Q46.9053-77.1484 46.0801-74.6953L38.7236-51.5205L14.4922-51.7158Q11.9414-51.7246 10.2915-50.9043Q8.6416-50.084 8.04297-48.3457Q7.43555-46.5586 8.30713-44.9155Q9.17871-43.2725 11.2637-41.7998L31.0244-27.624L23.2773-4.60449Q22.4434-2.16895 22.7314-0.366211Q23.0195 1.43652 24.4785 2.56738ZM32.0088-7.7373Q31.9512-7.83496 32-8.06152L39.1279-27.8545Q39.624-29.3564 39.3799-30.3901Q39.1357-31.4238 37.7227-32.3408L20.3203-44.1211Q20.1338-44.2588 20.1738-44.3965Q20.2139-44.4941 20.458-44.4941L41.4766-43.918Q43.0537-43.8691 43.9453-44.4658Q44.8369-45.0625 45.2891-46.6133L51.1133-66.792Q51.1621-67.0273 51.2998-67.0273Q51.4375-67.0273 51.4863-66.792L57.3105-46.6133Q57.8027-45.0625 58.6787-44.4658Q59.5547-43.8691 61.1719-43.918L82.1504-44.4941Q82.3945-44.4941 82.4346-44.3965Q82.4746-44.2676 82.2881-44.1211L64.877-32.332Q63.5127-31.415 63.2441-30.3857Q62.9756-29.3564 63.5117-27.8545L70.5996-8.06152Q70.6484-7.83496 70.5908-7.7373Q70.542-7.64844 70.3154-7.82617L53.707-20.7197Q52.4756-21.6943 51.3242-21.6943Q50.1729-21.6943 48.8926-20.7197L32.3242-7.82617Q32.0977-7.64844 32.0088-7.7373Z"/>
  </g>
  <g id="Regular-S" transform="matrix(1 0 0 1 1399.06 696)">
   <path d="M24.2676 2.29492Q25.6348 3.32031 27.2949 3.00293Q28.9551 2.68555 30.9082 1.2207L50.7812-13.3789L70.7031 1.2207Q72.6562 2.68555 74.3164 3.00293Q75.9766 3.32031 77.2949 2.29492Q78.6133 1.26953 78.8574-0.366211Q79.1016-2.00195 78.3203-4.29688L70.459-27.6855L90.5273-42.0898Q92.4805-43.457 93.2861-44.9463Q94.0918-46.4355 93.5547-48.0469Q93.0176-49.6094 91.5283-50.3418Q90.0391-51.0742 87.5977-51.0742L62.9883-50.8789L55.5176-74.4141Q54.7852-76.709 53.6133-77.9053Q52.4414-79.1016 50.7812-79.1016Q49.1211-79.1016 47.9736-77.9053Q46.8262-76.709 46.0449-74.4141L38.5742-50.8789L13.9648-51.0742Q11.5723-51.0742 10.0586-50.3418Q8.54492-49.6094 8.00781-48.0469Q7.4707-46.4355 8.27637-44.9463Q9.08203-43.457 11.0352-42.0898L31.1035-27.6855L23.2422-4.29688Q22.4609-2.00195 22.7051-0.366211Q22.9492 1.26953 24.2676 2.29492ZM30.6641-6.44531Q30.6152-6.54297 30.6641-6.78711L38.1348-27.8809Q38.5254-29.1016 38.2812-30.0781Q38.0371-31.0547 36.9141-31.7871L18.457-44.3848Q18.2617-44.5312 18.3105-44.6777Q18.3594-44.7754 18.6035-44.7754L40.9668-44.2871Q42.2363-44.2383 43.0664-44.7998Q43.8965-45.3613 44.2871-46.6309L50.5859-68.0664Q50.6348-68.3105 50.7812-68.3105Q50.9277-68.3105 50.9766-68.0664L57.2754-46.6309Q57.7148-45.3613 58.5205-44.7998Q59.3262-44.2383 60.6445-44.2871L82.959-44.7754Q83.2031-44.7754 83.252-44.6777Q83.3008-44.5312 83.1055-44.3848L64.6484-31.7871Q63.5742-31.0547 63.3057-30.0781Q63.0371-29.1016 63.4766-27.8809L70.8984-6.78711Q70.9473-6.54297 70.8984-6.44531Q70.8496-6.34766 70.6055-6.54297L52.8809-20.166Q51.9043-20.9473 50.8057-20.9473Q49.707-20.9473 48.6816-20.166L31.0059-6.54297Q30.7617-6.34766 30.6641-6.44531Z"/>
  </g>
  <g id="Light-S" transform="matrix(1 0 0 1 1103.26 696)">
   <path d="M23.9421 1.64388Q25.0326 2.45768 26.3753 2.22982Q27.7181 2.00195 29.3294 0.78125L49.8698-14.2741L70.4427 0.78125Q72.0866 2.00195 73.4294 2.22982Q74.7721 2.45768 75.8301 1.64388Q76.888 0.830078 77.1077-0.488281Q77.3275-1.80664 76.6764-3.74349L68.6198-27.8971L89.3392-42.806Q90.9505-43.9453 91.5853-45.1579Q92.2201-46.3704 91.7806-47.6562Q91.3737-48.9095 90.1693-49.528Q88.9648-50.1465 86.9303-50.1465L61.5072-50L53.7435-74.2839Q53.1413-76.1882 52.181-77.1484Q51.2207-78.1087 49.8698-78.1087Q48.5514-78.1087 47.6074-77.1484Q46.6634-76.1882 46.0124-74.2839L38.2487-50L12.8255-50.1465Q10.8236-50.1465 9.611-49.528Q8.39844-48.9095 7.97526-47.6562Q7.55208-46.3704 8.17871-45.1579Q8.80534-43.9453 10.4329-42.806L31.1361-27.8971L23.0957-3.74349Q22.4284-1.80664 22.6481-0.488281Q22.8678 0.830078 23.9421 1.64388ZM28.7272-4.91536Q28.6621-4.99674 28.7435-5.33854L36.5072-27.8483Q36.849-28.8737 36.6211-29.7201Q36.3932-30.5664 35.4492-31.2012L15.918-44.7917Q15.6413-44.987 15.6901-45.1497Q15.7389-45.2637 16.0807-45.2637L39.9089-44.8893Q40.9831-44.8568 41.6911-45.3451Q42.3991-45.8333 42.7409-46.9076L49.6257-69.6777Q49.7233-70.0033 49.8698-70.0033Q50.0326-70.0033 50.1302-69.6777L57.015-46.9076Q57.3893-45.8333 58.0811-45.3451Q58.7728-44.8568 59.8958-44.8893L83.6914-45.2637Q84.0169-45.2637 84.0658-45.1497Q84.1146-44.987 83.8542-44.7917L64.3229-31.2012Q63.4115-30.5664 63.1673-29.7201Q62.9232-28.8737 63.2812-27.8483L71.0124-5.33854Q71.0938-4.99674 71.0286-4.91536Q70.9635-4.81771 70.6543-5.04557L51.6764-19.401Q50.8301-20.0521 49.8942-20.0521Q48.9583-20.0521 48.0957-19.401L29.1504-5.04557Q28.8411-4.81771 28.7272-4.91536Z"/>
  </g>
  <g id="Thin-S" transform="matrix(1 0 0 1 807.739 696)">
   <path d="M23.5115 0.782825Q24.2361 1.31678 25.1591 1.20731Q26.0821 1.09785 27.2414 0.200038L48.6643-15.458L70.0983 0.200038Q71.3332 1.09785 72.2562 1.20731Q73.1792 1.31678 73.8927 0.782825Q74.6062 0.248866 74.7937-0.649729Q74.9811-1.54832 74.5023-3.01159L66.1873-28.177L87.7678-43.7532Q88.927-44.5911 89.3358-45.4377Q89.7445-46.2843 89.4342-47.1396Q89.1995-47.9839 88.3718-48.4517Q87.5441-48.9195 86.0478-48.9195L59.5483-48.8376L51.3971-74.1116Q50.9671-75.4993 50.2867-76.1475Q49.6062-76.7956 48.6643-76.7956Q47.798-76.7956 47.1231-76.1475Q46.4481-75.4993 45.9693-74.1116L37.8182-48.8376L11.3187-48.9195Q9.83335-48.9195 9.01903-48.4517Q8.2047-47.9839 7.93221-47.1396Q7.65972-46.2843 8.04955-45.4377Q8.43939-44.5911 9.63647-43.7532L31.1791-28.177L22.902-3.01159Q22.3853-1.54832 22.5728-0.649729Q22.7602 0.248866 23.5115 0.782825ZM26.1656-2.89189Q26.0789-2.95174 26.2034-3.42269L34.3545-27.8053Q34.6317-28.5723 34.4254-29.2465Q34.2191-29.9206 33.5118-30.4262L12.5599-45.3298Q12.1755-45.5897 12.2244-45.774Q12.2732-45.9095 12.7441-45.9095L38.5096-45.6858Q39.3255-45.6748 39.8721-46.0662Q40.4187-46.4576 40.6959-47.2735L48.3556-71.8088Q48.5178-72.242 48.6643-72.242Q48.8486-72.242 49.0108-71.8088L56.6706-47.2735Q56.9588-46.4576 57.4998-46.0662Q58.0409-45.6748 58.9056-45.6858L84.6601-45.9095Q85.0932-45.9095 85.1421-45.774Q85.1909-45.5897 84.8444-45.3298L63.8924-30.4262Q63.1962-29.9206 62.9843-29.2465Q62.7725-28.5723 63.0229-27.8053L71.1631-3.42269Q71.2875-2.95174 71.2009-2.89189Q71.1142-2.79423 70.7189-3.06515L50.0835-18.3893Q49.4093-18.8681 48.6887-18.8681Q47.9681-18.8681 47.3208-18.3893L26.6964-3.06515Q26.301-2.79423 26.1656-2.89189Z"/>
  </g>
  <g id="Ultralight-S" transform="matrix(1 0 0 1 511.64 696)">
   <path d="M23.291 0.341797Q23.8281 0.732422 24.5361 0.683594Q25.2441 0.634766 26.1719-0.0976562L48.0469-16.0645L69.9219-0.0976562Q70.9473 0.634766 71.6553 0.683594Q72.3633 0.732422 72.9004 0.341797Q73.4375-0.0488281 73.6084-0.732422Q73.7793-1.41602 73.3887-2.63672L64.9414-28.3203L86.9629-44.2383Q87.8906-44.9219 88.1836-45.5811Q88.4766-46.2402 88.2324-46.875Q88.0859-47.5098 87.4512-47.9004Q86.8164-48.291 85.5957-48.291L58.5449-48.2422L50.1953-74.0234Q49.8535-75.1465 49.3164-75.6348Q48.7793-76.123 48.0469-76.123Q47.4121-76.123 46.875-75.6348Q46.3379-75.1465 45.9473-74.0234L37.5977-48.2422L10.5469-48.291Q9.32617-48.291 8.71582-47.9004Q8.10547-47.5098 7.91016-46.875Q7.71484-46.2402 7.9834-45.5811Q8.25195-44.9219 9.22852-44.2383L31.2012-28.3203L22.8027-2.63672Q22.3633-1.41602 22.5342-0.732422Q22.7051-0.0488281 23.291 0.341797ZM24.8535-1.85547Q24.7559-1.9043 24.9023-2.44141L33.252-27.7832Q33.4961-28.418 33.3008-29.0039Q33.1055-29.5898 32.5195-30.0293L10.8398-45.6055Q10.4004-45.8984 10.4492-46.0938Q10.498-46.2402 11.0352-46.2402L37.793-46.0938Q38.4766-46.0938 38.9404-46.4355Q39.4043-46.7773 39.6484-47.4609L47.7051-72.9004Q47.9004-73.3887 48.0469-73.3887Q48.2422-73.3887 48.4375-72.9004L56.4941-47.4609Q56.7383-46.7773 57.2021-46.4355Q57.666-46.0938 58.3984-46.0938L85.1562-46.2402Q85.6445-46.2402 85.6934-46.0938Q85.7422-45.8984 85.3516-45.6055L63.6719-30.0293Q63.0859-29.5898 62.8906-29.0039Q62.6953-28.418 62.8906-27.7832L71.2402-2.44141Q71.3867-1.9043 71.2891-1.85547Q71.1914-1.75781 70.752-2.05078L49.2676-17.8711Q48.6816-18.2617 48.0713-18.2617Q47.4609-18.2617 46.9238-17.8711L25.4395-2.05078Q25-1.75781 24.8535-1.85547Z"/>
  </g>
 </g>
</svg>
